<svg width="118" height="72" viewBox="0 0 118 72" fill="none" xmlns="http://www.w3.org/2000/svg">
<path d="M63.0438 3.81314L67.8071 8.57645C68.0696 8.839 68.2009 9.18282 68.2009 9.52663C68.2009 9.87044 68.0696 10.2143 67.8071 10.4768L60.1933 18.0906C59.6682 18.6157 58.818 18.6157 58.2929 18.0906L50.7104 10.508C50.7104 10.508 50.7041 10.508 50.7041 10.5018L50.6479 10.4456C50.6416 10.4456 50.6416 10.4455 50.6416 10.4393C50.1478 9.91421 50.1603 9.08282 50.6729 8.57023L59.2431 0C60.2558 1.01267 60.2933 2.63168 59.3619 3.69437L54.486 8.57023C54.2235 8.83278 54.0922 9.17656 54.0922 9.52037C54.0922 9.86418 54.2235 10.208 54.486 10.4705L59.2431 15.2276L64.0002 10.4705C64.2627 10.208 64.394 9.86418 64.394 9.52037C64.394 9.17656 64.2627 8.83278 64.0002 8.57023L63.05 7.62006C61.9873 6.56988 61.9873 4.86332 63.0438 3.81314Z" fill="#605F5F"/>
<path d="M63.0438 3.81314L67.8071 8.57645C68.0696 8.839 68.2009 9.18282 68.2009 9.52663C68.2009 9.87044 68.0696 10.2143 67.8071 10.4768L60.1933 18.0906C59.6682 18.6157 58.818 18.6157 58.2929 18.0906L50.7104 10.508C50.7104 10.508 50.7041 10.508 50.7041 10.5018L50.6479 10.4456C50.6416 10.4456 50.6416 10.4455 50.6416 10.4393C50.1478 9.91421 50.1603 9.08282 50.6729 8.57023L59.2431 0C60.2558 1.01267 60.2933 2.63168 59.3619 3.69437L54.486 8.57023C54.2235 8.83278 54.0922 9.17656 54.0922 9.52037C54.0922 9.86418 54.2235 10.208 54.486 10.4705L59.2431 15.2276L64.0002 10.4705C64.2627 10.208 64.394 9.86418 64.394 9.52037C64.394 9.17656 64.2627 8.83278 64.0002 8.57023L63.05 7.62006C61.9873 6.56988 61.9873 4.86332 63.0438 3.81314Z" fill="#605F5F"/>
<path d="M42.0965 17.1469L46.8598 12.3836C47.1223 12.121 47.4661 11.9897 47.81 11.9897C48.1538 11.9897 48.4976 12.121 48.7601 12.3836L56.3739 19.9974C56.899 20.5225 56.899 21.3726 56.3739 21.8977L48.7914 29.4802C48.7914 29.4802 48.7914 29.4865 48.7851 29.4865L48.7289 29.5428C48.7289 29.549 48.7289 29.549 48.7226 29.549C48.1975 30.0429 47.3661 30.0303 46.8535 29.5177L38.2833 20.9475C39.296 19.9349 40.915 19.8974 41.9777 20.8288L46.8535 25.7046C47.1161 25.9671 47.4599 26.0984 47.8037 26.0984C48.1475 26.0984 48.4913 25.9671 48.7539 25.7046L53.5109 20.9475L48.7539 16.1905C48.4913 15.9279 48.1475 15.7967 47.8037 15.7967C47.4599 15.7967 47.1161 15.9279 46.8535 16.1905L45.9034 17.1406C44.8532 18.1971 43.1467 18.1971 42.0965 17.1469Z" fill="#605F5F"/>
<path d="M55.43 38.0877L50.6666 33.3244C50.4041 33.0619 50.2728 32.7181 50.2728 32.3743C50.2728 32.0304 50.4041 31.6867 50.6666 31.4241L58.2804 23.8103C58.8055 23.2852 59.6557 23.2852 60.1808 23.8103L67.7633 31.3928C67.7633 31.3928 67.7696 31.3928 67.7696 31.3991L67.8259 31.4554C67.8321 31.4554 67.8321 31.4554 67.8321 31.4616C68.3259 31.9867 68.3134 32.8181 67.8008 33.3307L59.2306 41.9009C58.218 40.8883 58.1804 39.2692 59.1119 38.2065L63.9877 33.3307C64.2502 33.0681 64.3815 32.7243 64.3815 32.3805C64.3815 32.0367 64.2502 31.6929 63.9877 31.4304L59.2306 26.6733L54.4735 31.4304C54.211 31.6929 54.0797 32.0367 54.0797 32.3805C54.0797 32.7243 54.211 33.0681 54.4735 33.3307L55.4237 34.2809C56.4802 35.331 56.4801 37.0376 55.43 38.0877Z" fill="#605F5F"/>
<path d="M76.371 24.7602L71.6077 29.5235C71.3451 29.786 71.0013 29.9173 70.6575 29.9173C70.3137 29.9173 69.9699 29.786 69.7073 29.5235L62.0935 21.9097C61.5684 21.3846 61.5684 20.5345 62.0935 20.0094L69.6761 12.4268C69.6761 12.4268 69.6761 12.4206 69.6823 12.4206L69.7386 12.3643C69.7386 12.3581 69.7386 12.3581 69.7448 12.3581C70.2699 11.8642 71.1013 11.8767 71.6139 12.3893L80.1841 20.9595C79.1715 21.9722 77.5524 22.0097 76.4897 21.0783L71.6139 16.2024C71.3514 15.9399 71.0076 15.8086 70.6638 15.8086C70.3199 15.8086 69.9761 15.9399 69.7136 16.2024L64.9565 20.9595L69.7136 25.7166C69.9761 25.9791 70.3199 26.1104 70.6638 26.1104C71.0076 26.1104 71.3514 25.9791 71.6139 25.7166L72.5641 24.7664C73.6142 23.71 75.3208 23.71 76.371 24.7602Z" fill="#605F5F"/>
<path d="M12.735 56.5845C12.735 57.1783 12.6225 57.7534 12.4037 58.3098C12.1849 58.8661 11.8474 59.4099 11.4035 59.9475C10.8347 60.6289 10.1783 61.1415 9.42195 61.4728C8.66557 61.8041 7.81542 61.9791 6.87151 61.9791C6.03387 61.9791 5.27124 61.8416 4.58362 61.5665C3.89601 61.2915 3.26464 60.8727 2.68954 60.3163C1.5581 59.2099 0.989258 57.8472 0.989258 56.2281C0.989258 54.6091 1.56436 53.2463 2.7083 52.1399C3.83975 51.0335 5.22123 50.4834 6.86526 50.4834C7.77792 50.4834 8.62806 50.6709 9.43445 51.046C9.83452 51.2335 10.2033 51.4711 10.5534 51.7586C10.9035 52.0462 11.2285 52.3837 11.5286 52.7713C11.2973 52.9963 11.0472 53.1651 10.7722 53.2839C10.6597 53.3339 10.5284 53.3776 10.3971 53.4089C10.2596 53.4402 10.1158 53.4527 9.9658 53.4464C9.81577 53.4401 9.65949 53.4089 9.49697 53.3589C9.33444 53.3089 9.16566 53.2214 8.99688 53.1026C8.69683 52.8776 8.36552 52.7025 8.01546 52.59C7.6654 52.4775 7.27784 52.415 6.85901 52.415C5.85884 52.415 4.98368 52.7838 4.23356 53.5214C3.48968 54.2653 3.11462 55.1655 3.11462 56.2281C3.11462 56.7595 3.20838 57.2533 3.39591 57.6971C3.58345 58.1472 3.86475 58.5598 4.23981 58.9286C4.61488 59.3037 5.0212 59.5849 5.45877 59.7662C5.89009 59.9538 6.35892 60.0475 6.86526 60.0475C7.32784 60.0475 7.76541 59.985 8.15923 59.8537C8.5593 59.7225 8.92186 59.5224 9.25942 59.2536C9.92204 58.741 10.3596 58.0097 10.5784 57.0658H8.89061C8.61556 57.0658 8.37177 57.0408 8.17173 56.9845C7.96545 56.9282 7.79042 56.8532 7.6404 56.7657C7.49037 56.6782 7.37159 56.5719 7.27158 56.4532C7.17781 56.3344 7.09655 56.2156 7.04029 56.0968C6.90277 55.8093 6.83401 55.4842 6.84651 55.1154H12.7413V56.5845H12.735Z" fill="#605F5F"/>
<path d="M23.2493 61.7608H14.8604V50.7339H23.2493C23.2493 50.9964 23.218 51.2277 23.1555 51.4215C23.093 51.6153 23.0118 51.7841 22.9117 51.9279C22.8117 52.0716 22.6929 52.1842 22.5617 52.2779C22.4304 52.3717 22.2991 52.4404 22.1679 52.4967C21.8491 52.628 21.4927 52.678 21.0927 52.6655H16.8857V55.1409H21.3177C21.3177 55.3847 21.2927 55.6035 21.2365 55.791C21.1802 55.9786 21.1114 56.1411 21.0239 56.2786C20.9364 56.4161 20.8364 56.5287 20.7239 56.6224C20.6113 56.7162 20.4988 56.7912 20.38 56.8537C20.105 56.9912 19.7924 57.0662 19.4424 57.0787H16.8795V59.8417H21.3552C21.599 59.8417 21.8116 59.8667 21.9991 59.923C22.1866 59.9792 22.3429 60.0543 22.4742 60.1418C22.6054 60.2293 22.718 60.3356 22.8117 60.4481C22.9055 60.5606 22.9742 60.6794 23.0305 60.8044C23.168 61.0794 23.2368 61.4045 23.2493 61.7608Z" fill="#605F5F"/>
<path d="M33.5949 61.7417H25.2684V50.7397H27.2875V59.8163H31.5695C31.8383 59.8163 32.0696 59.8413 32.2696 59.8976C32.4697 59.9538 32.6447 60.0288 32.7885 60.1164C32.9322 60.2101 33.051 60.3101 33.151 60.4289C33.2448 60.5414 33.3261 60.6602 33.3823 60.779C33.5261 61.0665 33.5949 61.3853 33.5949 61.7417Z" fill="#605F5F"/>
<path d="M44.1717 61.7608H35.7827V50.7339H44.1717C44.1717 50.9964 44.1404 51.2277 44.0779 51.4215C44.0154 51.6153 43.9341 51.7841 43.8341 51.9279C43.7341 52.0716 43.6153 52.1842 43.484 52.2779C43.3528 52.3717 43.2215 52.4404 43.0902 52.4967C42.7714 52.628 42.4151 52.678 42.015 52.6655H37.8081V55.1409H42.2401C42.2401 55.3847 42.2151 55.6035 42.1588 55.791C42.1026 55.9786 42.0338 56.1411 41.9463 56.2786C41.8588 56.4161 41.7587 56.5287 41.6462 56.6224C41.5337 56.7162 41.4212 56.7912 41.3024 56.8537C41.0274 56.9912 40.7148 57.0662 40.3648 57.0787H37.8018V59.8417H42.2776C42.5214 59.8417 42.7339 59.8667 42.9214 59.923C43.109 59.9792 43.2652 60.0543 43.3965 60.1418C43.5278 60.2293 43.6403 60.3356 43.7341 60.4481C43.8278 60.5606 43.8966 60.6794 43.9529 60.8044C44.0966 61.0794 44.1654 61.4045 44.1717 61.7608Z" fill="#605F5F"/>
<path d="M48.2723 61.7421H46.2407V50.5714C46.622 50.5589 46.9596 50.6214 47.2659 50.7589C47.3972 50.8152 47.5222 50.8964 47.641 50.9902C47.7597 51.084 47.8722 51.209 47.9723 51.359C48.066 51.509 48.1473 51.6841 48.2035 51.8966C48.2598 52.1091 48.2911 52.3529 48.2911 52.628C48.2911 52.7217 48.2911 52.8717 48.2911 53.078C48.2911 53.2843 48.2911 53.5406 48.2911 53.8407C48.2911 54.1407 48.2911 54.472 48.2911 54.8408C48.2911 55.2097 48.2911 55.591 48.2911 55.9911C48.2911 56.3911 48.2911 56.7975 48.2911 57.2163C48.2911 57.6351 48.2911 58.0414 48.2911 58.4415C48.2911 58.8415 48.2911 59.2229 48.2911 59.5854C48.2911 59.948 48.2911 60.2793 48.2911 60.5668C48.2911 60.8606 48.2911 61.1044 48.2911 61.3107C48.2723 61.517 48.2723 61.6608 48.2723 61.7421Z" fill="#605F5F"/>
<path d="M58.4929 52.6901C58.3429 52.6838 58.1991 52.6963 58.0616 52.7338C57.9991 52.7526 57.9365 52.7713 57.874 52.7964C57.8115 52.8214 57.7427 52.8589 57.6802 52.9026C57.6177 52.9464 57.5552 52.9964 57.4927 53.0589C57.4302 53.1214 57.3739 53.1901 57.3239 53.2777C57.2177 53.4589 57.1614 53.6215 57.1489 53.7778C57.1364 53.9341 57.1426 54.0653 57.1676 54.1841C57.1989 54.3216 57.2489 54.4466 57.3239 54.5592C57.3864 54.6654 57.4677 54.7654 57.574 54.8467C57.6677 54.9217 57.7865 54.9842 57.9303 55.0467C58.0803 55.1092 58.2616 55.1342 58.4866 55.1342H60.9183C61.8997 55.1342 62.6998 55.4218 63.325 56.0032C63.6375 56.2907 63.875 56.622 64.0251 57.0096C64.1751 57.3909 64.2564 57.8222 64.2564 58.3098L64.2501 58.5348C64.2501 59.0162 64.1751 59.4475 64.0188 59.8288C63.8688 60.2101 63.6313 60.5477 63.3187 60.8352C62.6936 61.4103 61.8935 61.6979 60.9183 61.6979H57.3927C57.0301 61.6979 56.7051 61.6354 56.4238 61.5041C56.305 61.4478 56.1862 61.3728 56.0675 61.2853C55.9487 61.1978 55.8487 61.0853 55.7549 60.9477C55.6612 60.8102 55.5924 60.6477 55.5361 60.4601C55.4799 60.2726 55.4549 60.0476 55.4549 59.7975H61.0183C61.1621 59.785 61.2996 59.7538 61.4309 59.7038C61.5434 59.6663 61.6622 59.6037 61.7809 59.5225C61.8997 59.4412 62.006 59.3287 62.0873 59.1849C62.1498 59.0912 62.1998 58.9911 62.231 58.8974C62.2623 58.8036 62.2873 58.7099 62.2998 58.6224C62.3123 58.5348 62.3185 58.4536 62.3123 58.3723C62.306 58.291 62.2998 58.2223 62.281 58.1473C62.2435 57.9847 62.181 57.8347 62.0935 57.6972C62.0122 57.5847 61.9122 57.4784 61.806 57.3909C61.7559 57.3534 61.7059 57.3096 61.6497 57.2721C61.5934 57.2346 61.5309 57.2034 61.4559 57.1721C61.3809 57.1408 61.3121 57.1221 61.2308 57.1033C61.1496 57.0846 61.0621 57.0783 60.9746 57.0783H58.3929C57.4427 57.0783 56.6738 56.8033 56.08 56.2469C55.4799 55.6968 55.1798 54.9592 55.1798 54.0341L55.1861 53.8153C55.1861 52.9026 55.4861 52.165 56.08 51.6024C56.6863 51.046 57.4552 50.771 58.3929 50.771L62.0372 50.7648C62.3998 50.7523 62.7249 50.8147 63.0062 50.9398C63.1249 50.996 63.2437 51.0711 63.3625 51.1586C63.4812 51.2461 63.5813 51.3649 63.6688 51.5024C63.7563 51.6399 63.8313 51.8087 63.8875 52.0025C63.9438 52.1962 63.9688 52.4275 63.9688 52.6838H58.4929V52.6901Z" fill="#605F5F"/>
<path d="M69.6073 57.6909H68.5258V59.4975V59.6351C68.5258 59.9539 68.4946 60.2351 68.4383 60.4727C68.382 60.7102 68.307 60.9103 68.207 61.0728C68.107 61.2353 68.0007 61.3728 67.882 61.4791C67.7632 61.5854 67.6382 61.6666 67.5131 61.7291C67.2131 61.8729 66.8818 61.9292 66.5067 61.8979V50.771H71.6951C72.1577 50.771 72.5765 50.8273 72.9516 50.9398C73.3266 51.0523 73.658 51.2023 73.9455 51.3836C74.2331 51.5649 74.4831 51.7774 74.6956 52.0087C74.9082 52.24 75.0769 52.4838 75.2145 52.7276C75.352 52.9714 75.452 53.2152 75.5145 53.4465C75.577 53.684 75.6083 53.8903 75.6083 54.0778C75.6083 54.3529 75.5895 54.6029 75.5458 54.8342C75.502 55.0655 75.4395 55.2843 75.352 55.4906C75.2645 55.6969 75.1582 55.8907 75.0269 56.0782C74.8957 56.2657 74.7456 56.447 74.5706 56.622C74.1205 57.0659 73.5829 57.3659 72.9578 57.5284L72.9328 57.5347L75.8333 61.7417H73.3079L71.2075 58.5098C71.1325 58.3598 71.0262 58.2223 70.8887 58.0973C70.8262 58.0473 70.7575 57.9973 70.6762 57.9473C70.5949 57.8972 70.5074 57.8535 70.4011 57.816C70.2949 57.7785 70.1824 57.7472 70.0511 57.7222C69.9073 57.6972 69.7635 57.6909 69.6073 57.6909ZM73.5892 54.0716C73.5892 53.9841 73.5767 53.8903 73.5517 53.784C73.5267 53.684 73.4829 53.5777 73.4267 53.4777C73.3641 53.3777 73.2829 53.2777 73.1829 53.1839C73.0829 53.0902 72.9578 53.0026 72.8078 52.9339C72.6578 52.8589 72.4765 52.8026 72.2702 52.7589C72.0639 52.7151 71.8201 52.6901 71.5451 52.6901H68.5258V54.978C68.5633 55.0843 68.6196 55.178 68.6946 55.2593C68.7696 55.3406 68.8509 55.403 68.9384 55.4593C69.0259 55.5156 69.1259 55.5593 69.2259 55.5968C69.326 55.6344 69.426 55.6594 69.526 55.6844C69.7573 55.7344 70.0136 55.7531 70.2824 55.7469H71.5451C71.8826 55.7469 72.1764 55.6969 72.4327 55.6031C72.689 55.5093 72.9016 55.3655 73.0829 55.1905C73.1641 55.1092 73.2391 55.028 73.3016 54.953C73.3642 54.878 73.4204 54.7967 73.4579 54.7092C73.4954 54.6217 73.5329 54.5342 73.5517 54.4342C73.5767 54.3216 73.5892 54.2091 73.5892 54.0716Z" fill="#605F5F"/>
<path d="M80.3779 52.6901C80.2279 52.6838 80.0841 52.6963 79.9466 52.7338C79.884 52.7526 79.8215 52.7713 79.759 52.7964C79.6965 52.8214 79.6278 52.8589 79.5652 52.9026C79.5027 52.9464 79.4402 52.9964 79.3777 53.0589C79.3152 53.1214 79.2589 53.1901 79.2089 53.2777C79.1027 53.4589 79.0464 53.6215 79.0339 53.7778C79.0214 53.9341 79.0277 54.0653 79.0527 54.1841C79.0839 54.3216 79.1339 54.4466 79.2089 54.5592C79.2714 54.6654 79.3527 54.7654 79.459 54.8467C79.5527 54.9217 79.6715 54.9842 79.8153 55.0467C79.9653 55.1092 80.1466 55.1342 80.3716 55.1342H82.8033C83.7847 55.1342 84.5849 55.4218 85.21 56.0032C85.5225 56.2907 85.7601 56.622 85.9101 57.0096C86.0601 57.3909 86.1414 57.8222 86.1414 58.3098L86.1351 58.5348C86.1351 59.0162 86.0601 59.4475 85.9038 59.8288C85.7538 60.2101 85.5163 60.5477 85.2037 60.8352C84.5786 61.4103 83.7785 61.6979 82.8033 61.6979H79.2777C78.9151 61.6979 78.5901 61.6354 78.3088 61.5041C78.19 61.4478 78.0712 61.3728 77.9525 61.2853C77.8337 61.1978 77.7337 61.0853 77.6399 60.9477C77.5461 60.8102 77.4774 60.6477 77.4211 60.4601C77.3649 60.2726 77.3399 60.0476 77.3399 59.7975H82.9033C83.0471 59.785 83.1846 59.7538 83.3159 59.7038C83.4284 59.6663 83.5472 59.6037 83.6659 59.5225C83.7847 59.4412 83.891 59.3287 83.9722 59.1849C84.0348 59.0912 84.0848 58.9911 84.116 58.8974C84.1473 58.8036 84.1723 58.7099 84.1848 58.6224C84.1973 58.5348 84.2035 58.4536 84.1973 58.3723C84.191 58.291 84.1848 58.2223 84.166 58.1473C84.1285 57.9847 84.066 57.8347 83.9785 57.6972C83.8972 57.5847 83.7972 57.4784 83.691 57.3909C83.641 57.3534 83.5909 57.3096 83.5347 57.2721C83.4784 57.2346 83.4159 57.2034 83.3409 57.1721C83.2659 57.1408 83.1971 57.1221 83.1159 57.1033C83.0346 57.0846 82.9471 57.0783 82.8596 57.0783H80.2779C79.3277 57.0783 78.5588 56.8033 77.965 56.2469C77.3649 55.6968 77.0648 54.9592 77.0648 54.0341L77.0711 53.8153C77.0711 52.9026 77.3711 52.165 77.965 51.6024C78.5713 51.046 79.3402 50.771 80.2779 50.771L83.9222 50.7648C84.2848 50.7523 84.6099 50.8147 84.8912 50.9398C85.0099 50.996 85.1287 51.0711 85.2475 51.1586C85.3662 51.2461 85.4663 51.3649 85.5538 51.5024C85.6413 51.6399 85.7163 51.8087 85.7726 52.0025C85.8288 52.1962 85.8538 52.4275 85.8538 52.6838H80.3779V52.6901Z" fill="#605F5F"/>
<path d="M97.1683 61.7479C96.7869 61.7667 96.4494 61.7041 96.1556 61.5541C96.0243 61.4916 95.8993 61.4041 95.7805 61.3041C95.6617 61.2041 95.5492 61.0665 95.4555 60.904C95.3617 60.7415 95.2867 60.5414 95.2242 60.3164C95.1679 60.0851 95.1367 59.8163 95.1367 59.5038V57.0658H90.142V59.5163C90.142 59.8226 90.1108 60.0914 90.0545 60.3164C89.9983 60.5414 89.917 60.7415 89.8232 60.904C89.7295 61.0665 89.617 61.2041 89.4982 61.3041C89.3794 61.4041 89.2544 61.4916 89.1294 61.5541C88.8293 61.7041 88.4918 61.7667 88.1167 61.7479V50.7022C88.4918 50.6897 88.8356 50.7522 89.1294 50.8898C89.2544 50.946 89.3794 51.0273 89.4982 51.1211C89.617 51.2149 89.7295 51.3399 89.8232 51.4899C89.917 51.6399 89.992 51.8149 90.0545 52.0212C90.117 52.2275 90.142 52.4713 90.142 52.7464V55.1155H95.1367V52.7026C95.1367 52.4338 95.1679 52.2025 95.2242 52.0025C95.2804 51.8024 95.3554 51.6274 95.4555 51.4836C95.5555 51.3399 95.6617 51.2211 95.7805 51.1273C95.8993 51.0335 96.0306 50.9585 96.1556 50.896C96.4556 50.7585 96.7932 50.696 97.1683 50.7022V61.7479Z" fill="#605F5F"/>
<path d="M105.238 52.7089H104.001V59.8976C104.001 60.1664 103.969 60.3977 103.913 60.5977C103.857 60.7977 103.776 60.9665 103.682 61.1103C103.588 61.2541 103.476 61.3666 103.357 61.4604C103.238 61.5541 103.107 61.6291 102.982 61.6854C102.682 61.8167 102.344 61.8792 101.963 61.8666V52.7151H100.85C100.456 52.7089 100.106 52.6338 99.7999 52.4963C99.6687 52.44 99.5374 52.365 99.4124 52.2713C99.2873 52.1775 99.1748 52.065 99.0748 51.9275C98.9748 51.7899 98.8998 51.6274 98.8373 51.4336C98.7748 51.2399 98.7498 51.021 98.7498 50.771H107.214C107.214 51.1336 107.151 51.4586 107.02 51.7399C106.964 51.8587 106.889 51.9775 106.795 52.0963C106.701 52.215 106.582 52.315 106.439 52.4088C106.295 52.5026 106.126 52.5713 105.926 52.6276C105.726 52.6838 105.501 52.7089 105.238 52.7089Z" fill="#605F5F"/>
<path d="M115.428 59.7479L112.521 59.7541C112.14 59.7666 111.802 59.7041 111.502 59.5791C111.371 59.5228 111.246 59.4541 111.127 59.3665C111.008 59.279 110.896 59.1603 110.802 59.0227C110.708 58.8852 110.633 58.7227 110.571 58.5289C110.514 58.3351 110.483 58.1101 110.483 57.8538H115.434V55.6159C115.434 55.1158 115.365 54.672 115.228 54.2782C115.09 53.8844 114.89 53.5406 114.615 53.2468C114.071 52.6529 113.39 52.3591 112.571 52.3591C112.158 52.3591 111.783 52.4341 111.446 52.5779C111.108 52.7217 110.802 52.9467 110.533 53.2468C109.989 53.8281 109.72 54.622 109.72 55.6159V61.7545H107.67V55.1784C107.67 53.8594 108.126 52.7404 109.039 51.809C109.502 51.3464 110.027 50.9964 110.614 50.7651C111.202 50.5338 111.852 50.415 112.577 50.415C113.302 50.415 113.959 50.5338 114.54 50.7651C115.121 50.9964 115.646 51.3464 116.103 51.809C117.028 52.7404 117.49 53.8594 117.49 55.1784V61.7545H115.44V59.7541H115.428V59.7479Z" fill="#605F5F"/>
<path d="M27.7938 67.6676C27.7312 67.6676 27.675 67.6676 27.6125 67.6863C27.5875 67.6926 27.5625 67.7051 27.5375 67.7113C27.5125 67.7238 27.4875 67.7363 27.4562 67.7551C27.4312 67.7739 27.4062 67.7926 27.3812 67.8176C27.3562 67.8426 27.3312 67.8739 27.3124 67.9051C27.2687 67.9801 27.2437 68.0489 27.2374 68.1114C27.2312 68.1739 27.2374 68.2302 27.2437 68.2802C27.2562 68.3364 27.2749 68.3864 27.3062 68.4364C27.3312 68.4802 27.3687 68.5177 27.4124 68.5552C27.45 68.5865 27.5 68.6115 27.5625 68.6365C27.625 68.6615 27.7 68.674 27.7938 68.674H28.7939C29.194 68.674 29.5253 68.7928 29.7816 69.0303C29.9129 69.1491 30.0066 69.2866 30.0691 69.4429C30.1317 69.5992 30.1629 69.7804 30.1629 69.9805L30.1567 70.0742C30.1567 70.2743 30.1254 70.4493 30.0629 70.6056C30.0004 70.7619 29.9066 70.8994 29.7753 71.0181C29.5191 71.2557 29.1877 71.3745 28.7877 71.3745H27.3374C27.1874 71.3745 27.0561 71.3494 26.9374 71.2932C26.8874 71.2682 26.8374 71.2432 26.7936 71.2057C26.7436 71.1682 26.6998 71.1244 26.6623 71.0682C26.6248 71.0119 26.5936 70.9431 26.5686 70.8681C26.5436 70.7931 26.531 70.6993 26.531 70.5931H28.8314C28.8877 70.5868 28.944 70.5743 29.0002 70.5556C29.044 70.5368 29.094 70.5118 29.144 70.4806C29.194 70.4493 29.2378 70.3993 29.269 70.3431C29.294 70.3055 29.3128 70.2618 29.3315 70.2243C29.3503 70.1868 29.3565 70.1492 29.3565 70.1117C29.3628 70.0742 29.3628 70.043 29.3628 70.0055C29.3628 69.9742 29.3565 69.943 29.3503 69.9117C29.3378 69.843 29.3128 69.7867 29.2753 69.7242C29.244 69.6742 29.2003 69.6367 29.1565 69.5992C29.1377 69.5804 29.1127 69.5679 29.094 69.5492C29.069 69.5367 29.044 69.5179 29.0127 69.5054C28.9815 69.4929 28.9565 69.4804 28.919 69.4741C28.8877 69.4679 28.8502 69.4616 28.8127 69.4616H27.75C27.3624 69.4616 27.0436 69.3491 26.7998 69.1178C26.556 68.8928 26.431 68.5865 26.431 68.2052V68.1176C26.431 67.7426 26.556 67.4363 26.7998 67.205C27.0499 66.98 27.3624 66.8612 27.75 66.8612L29.2503 66.8549C29.4003 66.8487 29.5316 66.8737 29.6503 66.93C29.7003 66.955 29.7503 66.98 29.7941 67.0175C29.8441 67.055 29.8816 67.0987 29.9191 67.1612C29.9566 67.2175 29.9879 67.2863 30.0066 67.3675C30.0316 67.4488 30.0379 67.5425 30.0379 67.6488H27.7938V67.6676Z" fill="#605F5F"/>
<path d="M34.4388 71.3935H31.0132V66.8677H31.8446V70.5996H33.6074C33.7199 70.5996 33.8137 70.6121 33.8949 70.6308C33.9762 70.6558 34.0512 70.6809 34.1075 70.7184C34.17 70.7559 34.2137 70.7996 34.2575 70.8434C34.295 70.8934 34.3262 70.9371 34.3512 70.9871C34.4138 71.1122 34.4388 71.2497 34.4388 71.3935Z" fill="#605F5F"/>
<path d="M36.1141 71.3937H35.2765V66.7991C35.4328 66.7929 35.5703 66.8241 35.6953 66.8741C35.7453 66.8991 35.8016 66.9304 35.8516 66.9679C35.9016 67.0054 35.9454 67.0554 35.9891 67.1179C36.0329 67.1805 36.0579 67.2492 36.0829 67.3367C36.1079 67.4242 36.1204 67.5243 36.1204 67.6368C36.1204 67.6743 36.1204 67.7368 36.1204 67.8243C36.1204 67.9118 36.1204 68.0181 36.1204 68.1369C36.1204 68.2556 36.1204 68.3994 36.1204 68.5494C36.1204 68.6995 36.1204 68.8557 36.1204 69.0245C36.1204 69.187 36.1204 69.3558 36.1204 69.5308C36.1204 69.6996 36.1204 69.8684 36.1204 70.031C36.1204 70.1935 36.1204 70.3498 36.1204 70.4998C36.1204 70.6498 36.1204 70.7873 36.1204 70.9061C36.1204 71.0249 36.1204 71.1249 36.1204 71.2124C36.1204 71.2999 36.1141 71.3624 36.1141 71.3937Z" fill="#605F5F"/>
<path d="M37.8707 70.5309C37.8707 70.6622 37.8582 70.7747 37.8332 70.8747C37.8082 70.9747 37.7769 71.056 37.7394 71.1248C37.7019 71.1935 37.6581 71.2498 37.6081 71.2998C37.5581 71.3498 37.5081 71.3811 37.4581 71.4123C37.3393 71.4811 37.2018 71.5123 37.0455 71.5061V66.874H39.1646C39.3522 66.874 39.5272 66.8991 39.6772 66.9428C39.8273 66.9866 39.9648 67.0491 40.0835 67.1241C40.2023 67.1991 40.3023 67.2866 40.3898 67.3804C40.4774 67.4741 40.5461 67.5742 40.6024 67.6742C40.6586 67.7742 40.6961 67.8742 40.7274 67.968C40.7524 68.0617 40.7649 68.1493 40.7649 68.2243C40.7649 68.3368 40.7587 68.4431 40.7399 68.5368C40.7211 68.6306 40.6962 68.7244 40.6587 68.8056C40.6211 68.8869 40.5774 68.9682 40.5274 69.0432C40.4711 69.1182 40.4086 69.1932 40.3398 69.2682C40.046 69.562 39.6585 69.7058 39.1646 69.7058H37.8707V70.4497V70.5309ZM39.9398 68.2243C39.9398 68.1868 39.9335 68.1493 39.921 68.1055C39.9085 68.0617 39.896 68.0242 39.871 67.9805C39.846 67.9367 39.8147 67.8992 39.771 67.8617C39.7272 67.8242 39.6772 67.7867 39.6147 67.7554C39.5522 67.7242 39.4772 67.6992 39.3959 67.6804C39.3084 67.6617 39.2146 67.6554 39.1021 67.6554H37.8707V68.5868C37.8894 68.6306 37.9082 68.6681 37.9394 68.6994C37.9707 68.7306 38.0019 68.7556 38.0395 68.7806C38.077 68.8056 38.1145 68.8244 38.1582 68.8369C38.202 68.8494 38.2395 68.8619 38.2832 68.8744C38.377 68.8931 38.4833 68.9056 38.5958 68.8994H39.1084C39.2459 68.8994 39.3709 68.8806 39.4772 68.8369C39.5835 68.7994 39.671 68.7431 39.7397 68.6681C39.771 68.6368 39.8022 68.5993 39.8335 68.5681C39.8585 68.5368 39.8835 68.5056 39.9023 68.4681C39.921 68.4306 39.9335 68.393 39.9398 68.3555C39.9335 68.3243 39.9398 68.2805 39.9398 68.2243Z" fill="#605F5F"/>
<path d="M44.2467 71.3937H43.4091V66.7991C43.5653 66.7929 43.7028 66.8241 43.8279 66.8741C43.8779 66.8991 43.9341 66.9304 43.9841 66.9679C44.0342 67.0054 44.0779 67.0554 44.1217 67.1179C44.1654 67.1805 44.1904 67.2492 44.2154 67.3367C44.2404 67.4242 44.253 67.5243 44.253 67.6368C44.253 67.6743 44.253 67.7368 44.253 67.8243C44.253 67.9118 44.253 68.0181 44.253 68.1369C44.253 68.2556 44.253 68.3994 44.253 68.5494C44.253 68.6995 44.253 68.8557 44.253 69.0245C44.253 69.187 44.253 69.3558 44.253 69.5308C44.253 69.6996 44.253 69.8684 44.253 70.031C44.253 70.1935 44.253 70.3498 44.253 70.4998C44.253 70.6498 44.253 70.7873 44.253 70.9061C44.253 71.0249 44.253 71.1249 44.253 71.2124C44.253 71.2999 44.2467 71.3624 44.2467 71.3937Z" fill="#605F5F"/>
<path d="M49.0975 67.6676V70.2618C49.1038 70.3993 49.1038 70.518 49.1038 70.6243C49.1038 70.7306 49.0975 70.8244 49.085 70.9056C49.0788 70.9869 49.0663 71.0557 49.0538 71.1182C49.0413 71.1744 49.0288 71.2244 49.01 71.2682C48.9725 71.362 48.9288 71.4307 48.8787 71.462L46.1845 68.7553V71.437C46.0283 71.4682 45.8845 71.4495 45.7594 71.387C45.7094 71.362 45.6532 71.3245 45.6032 71.2745C45.5532 71.2244 45.5094 71.1557 45.4656 71.0744C45.4281 70.9931 45.3906 70.8931 45.3719 70.7743C45.3469 70.6556 45.3344 70.5118 45.3344 70.3493V68.0051C45.3281 67.7863 45.3344 67.5925 45.3531 67.4175C45.3594 67.3425 45.3719 67.2738 45.3844 67.1987C45.3969 67.13 45.4156 67.0675 45.4344 67.0112C45.4531 66.955 45.4781 66.9112 45.5094 66.8799C45.5407 66.8487 45.5719 66.8299 45.6157 66.8299C45.6469 66.8612 45.6844 66.9049 45.7407 66.9612C45.797 67.0175 45.8595 67.0862 45.9345 67.1612C46.0095 67.2362 46.0908 67.3237 46.1783 67.4175C46.2658 67.5113 46.3658 67.6113 46.4658 67.7113C46.5658 67.8176 46.6659 67.9239 46.7721 68.0301C46.8784 68.1364 46.9847 68.2489 47.0847 68.3614C47.4535 68.7427 47.8536 69.1678 48.2974 69.6304V66.8237C48.4474 66.8174 48.5849 66.8424 48.6975 66.8987C48.7475 66.9237 48.7975 66.9549 48.8475 66.9924C48.8975 67.03 48.9413 67.08 48.9788 67.1425C49.0163 67.205 49.0475 67.2738 49.0725 67.3613C49.085 67.4488 49.0975 67.5488 49.0975 67.6676Z" fill="#605F5F"/>
<path d="M50.9228 71.1376C50.9291 71.3001 50.9041 71.4439 50.8541 71.5689C50.8353 71.6251 50.8041 71.6752 50.7728 71.7252C50.7353 71.7752 50.6916 71.8252 50.6415 71.8627C50.5853 71.9002 50.5228 71.9377 50.4477 71.9627C50.3727 71.9877 50.2852 72.0002 50.179 72.0002V70.6562H50.9228V71.1376Z" fill="#605F5F"/>
<path d="M55.1486 67.6676C55.086 67.6676 55.0298 67.6676 54.9673 67.6863C54.9423 67.6926 54.9173 67.7051 54.8923 67.7113C54.8673 67.7238 54.8423 67.7363 54.811 67.7551C54.786 67.7739 54.761 67.7926 54.736 67.8176C54.711 67.8426 54.686 67.8739 54.6672 67.9051C54.6235 67.9801 54.5985 68.0489 54.5922 68.1114C54.586 68.1739 54.5922 68.2302 54.5985 68.2802C54.611 68.3364 54.6297 68.3864 54.661 68.4364C54.686 68.4802 54.7235 68.5177 54.7672 68.5552C54.8047 68.5865 54.8548 68.6115 54.9173 68.6365C54.9798 68.6615 55.0548 68.674 55.1486 68.674H56.1487C56.5488 68.674 56.8801 68.7928 57.1364 69.0303C57.2677 69.1491 57.3614 69.2866 57.4239 69.4429C57.4865 69.5992 57.5177 69.7804 57.5177 69.9805L57.5115 70.0742C57.5115 70.2743 57.4802 70.4493 57.4177 70.6056C57.3552 70.7619 57.2614 70.8994 57.1301 71.0181C56.8738 71.2557 56.5425 71.3745 56.1425 71.3745H54.6922C54.5422 71.3745 54.4109 71.3494 54.2922 71.2932C54.2422 71.2682 54.1921 71.2432 54.1484 71.2057C54.0984 71.1682 54.0546 71.1244 54.0171 71.0682C53.9796 71.0119 53.9484 70.9431 53.9234 70.8681C53.8983 70.7931 53.8858 70.6993 53.8858 70.5931H56.1737C56.23 70.5868 56.2863 70.5743 56.3425 70.5556C56.3863 70.5368 56.4363 70.5118 56.4863 70.4806C56.5363 70.4493 56.5801 70.3993 56.6113 70.3431C56.6363 70.3055 56.6551 70.2618 56.6738 70.2243C56.6926 70.1868 56.6988 70.1492 56.6988 70.1117C56.7051 70.0742 56.7051 70.043 56.7051 70.0055C56.7051 69.9742 56.6988 69.943 56.6926 69.9117C56.6801 69.843 56.6551 69.7867 56.6176 69.7242C56.5863 69.6742 56.5426 69.6367 56.4988 69.5992C56.48 69.5804 56.455 69.5679 56.4363 69.5492C56.4113 69.5367 56.3863 69.5179 56.355 69.5054C56.3238 69.4929 56.2988 69.4804 56.2612 69.4741C56.23 69.4679 56.1925 69.4616 56.155 69.4616H55.0923C54.7047 69.4616 54.3859 69.3491 54.1421 69.1178C53.8983 68.8928 53.7733 68.5865 53.7733 68.2052V68.1176C53.7733 67.7426 53.8983 67.4363 54.1421 67.205C54.3922 66.98 54.7047 66.8612 55.0923 66.8612L56.5926 66.8549C56.7426 66.8487 56.8738 66.8737 56.9926 66.93C57.0426 66.955 57.0926 66.98 57.1364 67.0175C57.1864 67.055 57.2239 67.0987 57.2614 67.1612C57.2989 67.2175 57.3302 67.2863 57.3489 67.3675C57.3739 67.4488 57.3802 67.5425 57.3802 67.6488H55.1486V67.6676Z" fill="#605F5F"/>
<path d="M60.5933 67.6742H60.0869V70.6309C60.0869 70.7434 60.0744 70.8372 60.0494 70.9185C60.0244 70.9998 59.9932 71.0685 59.9557 71.1248C59.9182 71.181 59.8744 71.231 59.8244 71.2685C59.7744 71.3061 59.7244 71.3373 59.6681 71.3623C59.5431 71.4185 59.4056 71.4436 59.2493 71.4373V67.6742H58.7929C58.6304 67.6742 58.4866 67.6429 58.3616 67.5867C58.3054 67.5617 58.2554 67.5304 58.2053 67.4929C58.1553 67.4554 58.1053 67.4054 58.0678 67.3491C58.0303 67.2929 57.9928 67.2241 57.9678 67.1491C57.9428 67.0741 57.9303 66.9803 57.9303 66.874H61.4122C61.4122 67.024 61.3871 67.1553 61.3309 67.2741C61.3059 67.3241 61.2746 67.3741 61.2371 67.4179C61.1996 67.4679 61.1496 67.5054 61.0933 67.5429C61.0371 67.5804 60.9621 67.6117 60.8808 67.6367C60.7995 67.6617 60.7058 67.6742 60.5933 67.6742Z" fill="#605F5F"/>
<path d="M64.6001 70.5745L63.4062 70.5807C63.2499 70.587 63.1124 70.562 62.9874 70.5057C62.9374 70.4807 62.8811 70.4557 62.8311 70.4182C62.7811 70.3807 62.7373 70.3369 62.6998 70.2807C62.6623 70.2244 62.631 70.1556 62.606 70.0806C62.581 69.9994 62.5685 69.9118 62.5685 69.7993H64.6064V68.8804C64.6064 68.6742 64.5814 68.4929 64.5251 68.3303C64.4689 68.1678 64.3876 68.0303 64.2751 67.9053C64.05 67.6615 63.7687 67.5427 63.4374 67.5427C63.2686 67.5427 63.1124 67.574 62.9748 67.6302C62.8373 67.6865 62.7123 67.7803 62.5998 67.9053C62.3747 68.1428 62.2622 68.4679 62.2622 68.8804V71.4059H61.4183V68.6992C61.4183 68.1553 61.6059 67.699 61.9809 67.3114C62.1685 67.1239 62.3873 66.9801 62.631 66.8801C62.8748 66.7801 63.1436 66.7363 63.4374 66.7363C63.7375 66.7363 64.0063 66.7863 64.2438 66.8801C64.4814 66.9739 64.7001 67.1176 64.8877 67.3114C65.269 67.6927 65.4565 68.1553 65.4565 68.6992V71.4059H64.6126L64.6001 70.5745Z" fill="#605F5F"/>
<path d="M69.9387 67.6676V70.2618C69.945 70.3993 69.945 70.518 69.945 70.6243C69.945 70.7306 69.9387 70.8244 69.9262 70.9056C69.92 70.9869 69.9075 71.0557 69.895 71.1182C69.8825 71.1744 69.8699 71.2244 69.8512 71.2682C69.8137 71.362 69.7699 71.4307 69.7199 71.462L67.0257 68.7553V71.437C66.8694 71.4682 66.7257 71.4495 66.6006 71.387C66.5506 71.362 66.4944 71.3245 66.4444 71.2745C66.3944 71.2244 66.3506 71.1557 66.3068 71.0744C66.2693 70.9931 66.2318 70.8931 66.2131 70.7743C66.1881 70.6556 66.1756 70.5118 66.1756 70.3493V68.0051C66.1693 67.7863 66.1756 67.5925 66.1943 67.4175C66.2006 67.3425 66.2131 67.2738 66.2256 67.1987C66.2381 67.13 66.2568 67.0675 66.2756 67.0112C66.2943 66.955 66.3193 66.9112 66.3506 66.8799C66.3818 66.8487 66.4131 66.8299 66.4569 66.8299C66.4881 66.8612 66.5256 66.9049 66.5819 66.9612C66.6382 67.0175 66.7007 67.0862 66.7757 67.1612C66.8507 67.2362 66.9319 67.3237 67.0195 67.4175C67.107 67.5113 67.207 67.6113 67.307 67.7113C67.407 67.8176 67.5071 67.9239 67.6133 68.0301C67.7196 68.1364 67.8259 68.2489 67.9259 68.3614C68.2947 68.7427 68.6948 69.1678 69.1386 69.6304V66.8237C69.2886 66.8174 69.4261 66.8424 69.5386 66.8987C69.5887 66.9237 69.6387 66.9549 69.6887 66.9924C69.7387 67.03 69.7824 67.08 69.8199 67.1425C69.8575 67.205 69.8887 67.2738 69.9137 67.3613C69.9262 67.4488 69.9387 67.5488 69.9387 67.6676Z" fill="#605F5F"/>
<path d="M72.1952 70.6121H73.0016C73.2892 70.5996 73.5455 70.5371 73.7705 70.4183C73.8643 70.3683 73.958 70.3058 74.0518 70.2308C74.1456 70.1557 74.2268 70.062 74.2956 69.9495C74.3706 69.837 74.4269 69.712 74.4706 69.5619C74.5144 69.4119 74.5394 69.2369 74.5394 69.0431C74.5394 68.9618 74.5331 68.8805 74.5144 68.8055C74.4956 68.7305 74.4769 68.6617 74.4456 68.593C74.4144 68.5242 74.3831 68.4617 74.3519 68.4055C74.3144 68.3492 74.2769 68.2929 74.2394 68.2492C74.1518 68.1367 74.0518 68.0367 73.9393 67.9491C73.858 67.8991 73.7768 67.8491 73.6767 67.8053C73.5955 67.7678 73.4955 67.7366 73.3829 67.7053C73.2704 67.6741 73.1454 67.6616 73.0079 67.6616C72.9829 67.6616 72.9454 67.6616 72.9016 67.6616C72.8579 67.6616 72.8078 67.6616 72.7453 67.6616C72.6828 67.6616 72.6266 67.6616 72.5641 67.6616C72.5015 67.6616 72.4328 67.6616 72.3703 67.6616C72.2202 67.6616 72.0577 67.6616 71.8827 67.6616L71.8702 71.3997H71.045V66.8677H72.9454C73.3142 66.8677 73.6392 66.9239 73.933 67.0365C74.2268 67.149 74.4894 67.3178 74.7144 67.5491C75.1395 67.9804 75.352 68.5055 75.352 69.1306C75.352 69.762 75.1332 70.287 74.7019 70.7184C74.2581 71.1622 73.6893 71.3935 72.9891 71.3997C72.8391 71.406 72.7016 71.3872 72.5828 71.331C72.5328 71.3059 72.4828 71.2809 72.4328 71.2434C72.3828 71.2059 72.339 71.1622 72.3015 71.0997C72.264 71.0434 72.2328 70.9746 72.2078 70.8934C72.2078 70.8121 72.1952 70.7184 72.1952 70.6121Z" fill="#605F5F"/>
<path d="M81.3718 67.3177C81.7531 67.699 81.9469 68.1678 81.9469 68.7179V69.5055C81.9469 70.0556 81.7531 70.5182 81.3718 70.9058C80.9967 71.2871 80.5154 71.4809 79.9216 71.4871H79.9153C79.3152 71.4871 78.8276 71.2933 78.4463 70.9058C78.065 70.5245 77.8712 70.0556 77.8712 69.5055V68.7179C77.8712 68.1678 78.065 67.699 78.4463 67.3177C78.8214 66.9364 79.3027 66.7426 79.8966 66.7363H79.9028C80.5029 66.7426 80.9905 66.9364 81.3718 67.3177ZM80.7654 70.3119C80.8092 70.2682 80.8467 70.2244 80.878 70.1744C80.9092 70.1244 80.9405 70.0744 80.9655 70.0181C80.9905 69.9681 81.0092 69.9119 81.028 69.8619C81.0468 69.8119 81.0593 69.7556 81.0718 69.7118C81.0968 69.5993 81.1093 69.4805 81.1155 69.368V68.8679C81.1155 68.7554 81.0968 68.6366 81.0718 68.5241C81.0593 68.4741 81.0468 68.4241 81.028 68.3741C81.0092 68.3241 80.9905 68.2678 80.9655 68.2178C80.9405 68.1678 80.9155 68.1116 80.878 68.0616C80.8405 68.0115 80.8092 67.9615 80.7654 67.924C80.7029 67.8552 80.6279 67.7928 80.5404 67.7427C80.5029 67.7177 80.4654 67.699 80.4216 67.674C80.3779 67.6552 80.3279 67.6302 80.2779 67.6177C80.2279 67.599 80.1716 67.5865 80.1091 67.574C80.0466 67.5614 79.9841 67.5552 79.9216 67.5552H79.9091C79.8403 67.5552 79.7778 67.5614 79.7153 67.574C79.6528 67.5865 79.5965 67.599 79.5465 67.6177C79.4965 67.6365 79.4465 67.6552 79.3965 67.674C79.3527 67.699 79.309 67.7177 79.2715 67.7427C79.1839 67.799 79.1089 67.8552 79.0464 67.924C79.0026 67.9678 78.9651 68.0115 78.9339 68.0616C78.9026 68.1116 78.8714 68.1616 78.8464 68.2178C78.8214 68.2678 78.8026 68.3241 78.7839 68.3741C78.7651 68.4241 78.7526 68.4804 78.7401 68.5241C78.7151 68.6366 78.7026 68.7554 78.6963 68.8679V69.368C78.6963 69.4868 78.7151 69.5993 78.7401 69.7118C78.7526 69.7619 78.7651 69.8119 78.7839 69.8619C78.8026 69.9119 78.8214 69.9681 78.8464 70.0181C78.8714 70.0682 78.8964 70.1244 78.9339 70.1744C78.9714 70.2244 79.0026 70.2682 79.0464 70.3119C79.1152 70.3807 79.1902 70.4432 79.2715 70.4932C79.309 70.5182 79.3465 70.537 79.3902 70.562C79.434 70.587 79.484 70.6057 79.534 70.6182C79.584 70.637 79.6403 70.6495 79.7028 70.662C79.7653 70.6745 79.8278 70.6808 79.8903 70.6808H79.9028C79.9716 70.6808 80.0341 70.6745 80.0903 70.662C80.1528 70.6495 80.2091 70.637 80.2591 70.6182C80.3091 70.5995 80.3591 70.5807 80.4091 70.562C80.4529 70.537 80.4967 70.5182 80.5342 70.4932C80.6217 70.4432 80.7029 70.3869 80.7654 70.3119Z" fill="#605F5F"/>
<path d="M86.8103 67.6618V69.5372C86.8103 70.081 86.6228 70.5436 86.2477 70.9187C86.0602 71.1124 85.8477 71.2562 85.6039 71.35C85.3601 71.4438 85.0975 71.4938 84.7975 71.4938C84.2036 71.4938 83.7223 71.3062 83.3535 70.9249C82.9722 70.5499 82.7846 70.0935 82.7846 69.5434V67.6869C82.7784 67.5306 82.8034 67.393 82.8596 67.268C82.8846 67.218 82.9159 67.168 82.9534 67.118C82.9909 67.068 83.0409 67.0242 83.1034 66.9867C83.166 66.9492 83.2347 66.918 83.3222 66.893C83.4097 66.868 83.5035 66.8555 83.6223 66.8555V69.3684C83.6223 69.7747 83.7348 70.0998 83.9536 70.3436C84.1786 70.5811 84.4537 70.7061 84.7912 70.7061C85.1288 70.7061 85.4038 70.5874 85.6289 70.3436C85.8539 70.0998 85.9664 69.7809 85.9664 69.3684V66.8555C86.0789 66.8555 86.1727 66.868 86.2602 66.893C86.3415 66.918 86.4165 66.9492 86.4728 66.9867C86.5353 67.0242 86.5853 67.068 86.6228 67.118C86.6603 67.168 86.6916 67.218 86.7166 67.268C86.7853 67.368 86.8166 67.5056 86.8103 67.6618Z" fill="#605F5F"/>
<path d="M90.0983 67.6742H89.5857V70.6309C89.5857 70.7434 89.5732 70.8372 89.5482 70.9185C89.5232 70.9998 89.4919 71.0685 89.4544 71.1248C89.4169 71.181 89.3732 71.231 89.3232 71.2685C89.2731 71.3061 89.2231 71.3373 89.1669 71.3623C89.0419 71.4185 88.9043 71.4436 88.7481 71.4373V67.6742H88.2917C88.1292 67.6742 87.9854 67.6429 87.8604 67.5867C87.8041 67.5617 87.7541 67.5304 87.7041 67.4929C87.6541 67.4554 87.6041 67.4054 87.5666 67.3491C87.5291 67.2929 87.4916 67.2241 87.4666 67.1491C87.4416 67.0741 87.4291 66.9803 87.4291 66.874H90.9109C90.9109 67.024 90.8859 67.1553 90.8297 67.2741C90.8047 67.3241 90.7734 67.3741 90.7359 67.4179C90.6984 67.4679 90.6484 67.5054 90.5921 67.5429C90.5359 67.5804 90.4608 67.6117 90.3796 67.6367C90.2983 67.6617 90.2046 67.6742 90.0983 67.6742Z" fill="#605F5F"/>
<path d="M92.3362 70.1995C92.2549 70.1995 92.1862 70.1933 92.1237 70.1745C92.0611 70.1558 92.0111 70.1308 91.9611 70.1058C91.9174 70.0745 91.8736 70.0432 91.8424 70.0057C91.8111 69.9682 91.7861 69.9307 91.7611 69.8932C91.7111 69.8057 91.6798 69.6994 91.6736 69.5869L91.5236 66.8677H92.5175C92.4862 67.4428 92.455 67.9616 92.4237 68.4367C92.4175 68.568 92.4112 68.7055 92.3987 68.8368C92.3862 68.9681 92.3862 69.0993 92.38 69.2243C92.3737 69.3494 92.3675 69.4619 92.3612 69.5744C92.3549 69.6807 92.3487 69.7807 92.3424 69.8682C92.3362 69.9557 92.3362 70.0245 92.3299 70.087C92.3362 70.137 92.3362 70.1808 92.3362 70.1995ZM91.5298 70.6121C91.536 70.6621 91.5423 70.7121 91.5486 70.7746C91.5548 70.8371 91.5798 70.8996 91.6048 70.9622C91.6298 71.0247 91.6673 71.0934 91.7111 71.1559C91.7548 71.2185 91.8111 71.2747 91.8799 71.3247C91.9486 71.3747 92.0299 71.4122 92.1299 71.4435C92.2237 71.4747 92.3424 71.4872 92.4737 71.4872V71.1622V70.6058H91.5298V70.6121Z" fill="#605F5F"/>
<path d="M23.2494 69.187H12.7351" stroke="#605F5F" stroke-width="0.5" stroke-miterlimit="10"/>
<path d="M105.432 69.187H94.9178" stroke="#605F5F" stroke-width="0.5" stroke-miterlimit="10"/>
</svg>
