<svg width="86" height="72" viewBox="0 0 86 72" fill="none" xmlns="http://www.w3.org/2000/svg">
<path d="M21.5642 1.05897C20.1455 0.724558 18.7521 0.942435 17.3739 1.71766C15.9957 2.48783 14.9165 3.47586 14.121 4.68684C13.9538 3.47586 13.5586 2.39662 12.9353 1.43898C12.3071 0.481349 11.4558 0 10.3715 0C8.82613 0 7.61008 0.658691 6.71325 1.97101C5.81641 3.28332 5.33 4.86925 5.24386 6.72372C5.15773 8.57819 5.27426 10.4428 5.58334 12.3226C5.89749 14.1973 6.47004 15.7934 7.301 17.1057C8.13197 18.418 9.0288 19.0767 9.9915 19.0767C11.618 19.0767 13.5788 18.0127 15.8691 15.8897C18.747 13.184 20.8903 10.159 22.309 6.82505C23.7328 3.43533 23.4795 1.52005 21.5642 1.05897Z" fill="#605F5F"/>
<path d="M20.1455 32.6103C19.9327 32.8788 19.6743 33.2385 19.3652 33.6996C19.6135 33.3145 19.8719 32.9193 20.1405 32.519C20.1405 32.5494 20.1405 32.5798 20.1455 32.6103Z" fill="#605F5F"/>
<path d="M85.6801 33.1877C85.5332 32.6911 85.1937 32.4732 84.6667 32.5391C84.1449 32.61 83.6483 33.0306 83.1923 33.8159C82.0877 35.7262 80.4207 38.0316 78.1812 40.7221C75.9467 43.4176 74.2392 44.7654 73.0535 44.7654C72.5924 44.7654 72.1364 44.279 71.6804 43.3112C71.2193 42.3384 70.9913 41.4112 70.9913 40.5194C70.9913 38.6903 71.2599 36.5673 71.7969 34.1554C72.3391 31.7487 72.8812 29.6054 73.4335 27.7307C73.9858 25.861 74.2645 24.6703 74.2645 24.1585C74.2645 23.6468 73.7426 23.0134 72.709 22.2585C71.6703 21.5035 70.7329 21.1235 69.9019 21.1235C69.0912 21.1235 68.2299 21.919 67.3128 23.51C65.4279 21.919 63.5684 21.1235 61.7392 21.1235C59.4186 21.1235 57.3108 22.0203 55.4158 23.814C53.5157 25.6026 52.0818 27.756 51.109 30.259C50.5009 31.8297 50.0855 33.3954 49.8574 34.9611C49.4977 35.2144 49.1126 35.4931 48.6972 35.7971C47.5115 36.6585 45.7634 38.0316 43.4428 39.9164C41.1273 41.8013 38.9992 43.7014 37.0586 45.6167C36.709 44.9681 36.2175 44.3499 35.5841 43.7571C34.9508 43.1643 34.3276 42.7336 33.7043 42.46C39.7136 36.9675 42.7183 31.6321 42.7183 26.4589C42.7183 25.329 42.4396 24.3409 41.8873 23.4897C41.335 22.6435 40.651 22.0152 39.8302 21.6099C39.0093 21.2096 38.2341 20.9107 37.5045 20.7232C37.2309 20.6523 36.9724 20.5965 36.7191 20.5509C36.2935 20.48 35.8983 20.4395 35.5284 20.4395C34.0691 20.4395 32.5693 20.7536 31.0189 21.3718C30.4362 21.6048 29.8738 21.8632 29.3367 22.1419H29.3316C26.2408 24.118 22.8612 28.4603 20.1403 32.5188C20.1403 32.5492 20.1404 32.5796 20.1454 32.61C19.9326 32.8786 19.6742 33.2383 19.3651 33.6994C19.2638 33.8514 19.1574 34.0186 19.0408 34.196C18.9699 34.3024 18.899 34.4189 18.823 34.5354C14.2983 41.6797 11.6534 44.7198 11.5723 44.811C11.5723 44.8161 11.5723 44.8161 11.5723 44.8161C10.9085 45.3228 10.3563 45.5761 9.91544 45.5761C9.34795 45.5761 8.87167 45.1708 8.48152 44.3601C8.09137 43.5544 7.89376 42.2725 7.89376 40.5245C7.89376 38.6903 8.20284 36.4608 8.821 33.8362C9.44422 31.2116 10.0573 28.8454 10.6603 26.7426C11.2683 24.6449 11.5723 23.3377 11.5723 22.8259C11.5723 22.2331 10.9795 21.6808 9.79383 21.1691C8.60819 20.6573 7.47828 20.6421 6.39904 21.1285C5.13233 21.6656 3.83521 23.7734 2.50263 27.452C1.16498 31.1305 0.501221 34.272 0.501221 36.8865C0.501221 40.7423 1.26125 43.6558 2.78131 45.6369C4.30643 47.6181 6.52064 48.6061 9.42902 48.6061C10.5083 48.6061 11.6939 48.1399 12.986 47.2127C14.278 46.2804 15.4231 45.2113 16.4213 44.0003C17.4144 42.7843 18.4075 41.4365 19.3905 39.9367C19.4209 39.8911 19.4513 39.8455 19.4817 39.7999C19.5374 39.7188 19.5881 39.6378 19.6438 39.5567C19.9225 39.1209 20.1809 38.7257 20.414 38.3609C20.4444 38.3153 20.4697 38.2697 20.5001 38.2241C20.5254 38.1785 20.5558 38.1329 20.5812 38.0924C20.6724 37.9454 20.7585 37.8086 20.8446 37.6769C20.8649 37.6414 20.8852 37.611 20.9054 37.5756C21.1385 37.1905 21.3361 36.8611 21.4932 36.5825C21.5236 36.5318 21.554 36.4761 21.5844 36.4254V36.4203C21.6148 36.3798 21.9543 35.868 22.4762 35.1181C23.4338 33.745 25.0147 31.5612 26.4182 29.9601L26.4232 29.955C26.4384 29.9347 26.4536 29.9145 26.4739 29.8942C26.4891 29.879 26.5043 29.8587 26.5195 29.8385C26.5955 29.7473 26.6715 29.6561 26.7475 29.5649C26.8691 29.4179 26.9907 29.271 27.1225 29.124C27.1833 29.0531 27.2491 28.9771 27.3099 28.9011C27.3758 28.8251 27.4417 28.7542 27.5076 28.6782C27.5734 28.6022 27.6393 28.5262 27.7052 28.4501C27.771 28.3741 27.842 28.2981 27.9078 28.2221C27.9788 28.136 28.0548 28.0549 28.1308 27.9739C28.2017 27.8979 28.2777 27.8168 28.3537 27.7357C28.4297 27.6547 28.5057 27.5787 28.5817 27.4976C28.6577 27.4216 28.7337 27.3405 28.8097 27.2645C28.8756 27.1986 28.9415 27.1378 29.0073 27.072C29.0732 27.0061 29.134 26.9453 29.205 26.8845C29.2607 26.8237 29.3215 26.768 29.3874 26.7122C29.4583 26.6413 29.5292 26.5754 29.6052 26.5095C29.6711 26.4487 29.742 26.3879 29.8079 26.3271C29.8789 26.2663 29.9447 26.2055 30.0157 26.1498C30.0765 26.0941 30.1373 26.0434 30.2031 25.9877C30.2791 25.9218 30.3602 25.861 30.4362 25.7951C30.801 25.4962 31.181 25.2074 31.5661 24.9287C32.8176 24.0268 33.907 23.5454 34.8292 23.4796C34.9001 23.4745 34.971 23.4694 35.042 23.4694C35.8729 23.4694 36.2631 24.0116 36.2124 25.0858C36.1313 27.001 34.9204 29.7878 32.5744 33.4511C30.041 37.4134 27.4974 40.2914 24.9387 42.1003C24.6955 42.2624 24.5738 42.5157 24.5738 42.8654C24.5992 43.676 25.0603 44.4158 25.947 45.0897C27.3201 46.1132 28.7084 46.1284 30.1119 45.1302C30.2437 45.0745 30.4058 45.0492 30.5933 45.0492C30.7858 45.0492 31.0138 45.1556 31.2824 45.3734C31.5509 45.5863 31.8042 45.8497 32.0475 46.1588C32.2907 46.4679 32.5339 46.9138 32.7771 47.4914C33.0203 48.0741 33.2078 48.7226 33.3446 49.4523C27.3606 56.1608 24.3712 62.1549 24.3712 67.4345C24.3712 70.4797 25.7443 71.9998 28.4956 71.9998C30.3501 71.9998 32.0981 71.1384 33.7246 69.4157C35.3561 67.6929 36.6279 65.4889 37.545 62.8085C38.4621 60.1281 38.9181 57.3718 38.9181 54.5445C38.9181 52.1985 38.6901 50.192 38.2341 48.525C40.7624 45.8295 43.3871 43.3062 46.1131 40.945C47.4152 39.8202 48.5958 38.822 49.6548 37.9556H49.6599C49.7004 40.6055 50.5162 42.8046 52.1021 44.5627C53.7285 46.3666 55.4361 47.2684 57.2095 47.2684C59.5554 47.2684 61.8456 44.9782 64.0801 40.4029C64.6729 42.5309 65.6964 44.2942 67.1506 45.6927C68.6048 47.0962 70.3985 47.7954 72.5266 47.7954C73.8744 47.7954 75.3336 47.1772 76.9094 45.9359C78.4852 44.6996 79.8988 43.215 81.1554 41.4922C82.4069 39.7644 83.3899 38.3457 84.1043 37.231C84.8188 36.1112 85.295 35.3208 85.5382 34.8648C85.7815 34.2466 85.8271 33.6842 85.6801 33.1877ZM32.5541 60.9084C31.8701 63.2899 31.1253 65.1899 30.3349 66.6036C29.5343 68.0223 28.8857 68.7266 28.374 68.7266C27.4012 64.82 29.1695 59.89 33.6638 53.9364C33.6131 56.2013 33.2432 58.5219 32.5541 60.9084ZM66.6389 25.7698L66.5629 25.9269L58.694 42.3181C58.694 42.3181 58.689 42.3232 58.6839 42.3384C58.5015 42.6627 56.3025 46.4324 54.8888 42.3181C53.4195 38.0265 56.2062 28.0904 62.0939 25.5063C67.9816 22.9222 66.6389 25.7698 66.6389 25.7698Z" fill="#605F5F"/>
<path d="M49.0214 55.8672C49.4014 55.6037 49.5889 55.2389 49.5889 54.7778C49.5889 54.3724 49.447 54.038 49.1633 53.7644C48.8796 53.4908 48.535 53.354 48.1246 53.354H46.032V58.583H48.2867C48.7073 58.583 49.067 58.4411 49.3609 58.1574C49.6548 57.8736 49.8017 57.524 49.8017 57.1035C49.8017 56.8248 49.7308 56.5765 49.5889 56.3637C49.447 56.1458 49.2596 55.9786 49.0214 55.8672ZM46.7261 53.9975H48.1246C48.3374 53.9975 48.5198 54.0735 48.6718 54.2306C48.8238 54.3876 48.8998 54.5751 48.8998 54.793C48.8998 55.0159 48.8238 55.2085 48.6769 55.3605C48.5299 55.5125 48.3425 55.5936 48.1246 55.5936H46.7261V53.9975ZM48.8796 57.6811C48.7225 57.8432 48.5249 57.9294 48.2918 57.9294H46.7312V56.232H48.2918C48.5198 56.232 48.7174 56.313 48.8796 56.4803C49.0417 56.6424 49.1228 56.8451 49.1228 57.0781C49.1177 57.3112 49.0366 57.5139 48.8796 57.6811Z" fill="#605F5F"/>
<path d="M51.3167 56.2626H53.5208V55.6089H51.3167V54.0078H53.7083V53.3491H50.6226V58.5781H53.7488V57.9194H51.3167V56.2626Z" fill="#605F5F"/>
<path d="M59.5655 53.3491L58.1468 55.8015L56.728 53.3491H55.9478L57.7972 56.4551V58.5781H58.4913V56.4602L60.3407 53.3491H59.5655Z" fill="#605F5F"/>
<path d="M63.006 53.2529C62.251 53.2529 61.6075 53.5164 61.0856 54.0434C60.5638 54.5703 60.3003 55.2087 60.3003 55.9688C60.3003 56.7187 60.5638 57.3622 61.0856 57.8891C61.6075 58.4161 62.246 58.6795 63.006 58.6795C63.761 58.6795 64.4044 58.4161 64.9314 57.8891C65.4583 57.3622 65.7168 56.7237 65.7168 55.9688C65.7168 55.2138 65.4533 54.5703 64.9314 54.0434C64.4095 53.5164 63.766 53.2529 63.006 53.2529ZM64.445 57.4078C64.0599 57.7979 63.5785 57.9955 63.006 57.9955C62.4334 57.9955 61.9521 57.7979 61.567 57.4078C61.1819 57.0176 60.9894 56.5363 60.9894 55.9637C60.9894 55.3861 61.1819 54.8997 61.567 54.5095C61.9521 54.1194 62.4334 53.9218 63.006 53.9218C63.5785 53.9218 64.0599 54.1194 64.445 54.5095C64.8301 54.8997 65.0226 55.3861 65.0226 55.9637C65.0226 56.5363 64.8301 57.0176 64.445 57.4078Z" fill="#605F5F"/>
<path d="M69.684 56.7892C69.684 57.1591 69.5725 57.4479 69.3547 57.6658C69.1368 57.8837 68.8226 57.9901 68.4122 57.9901C68.0018 57.9901 67.6927 57.8837 67.4698 57.6658C67.2519 57.4479 67.1404 57.1591 67.1404 56.7892V53.3438H66.4463V56.8145C66.4463 57.377 66.6287 57.8279 66.9935 58.1623C67.3583 58.4967 67.8295 58.6639 68.4072 58.6639C68.9848 58.6639 69.456 58.4967 69.8208 58.1623C70.1856 57.8279 70.368 57.377 70.368 56.8145V53.3438H69.6789V56.7892H69.684Z" fill="#605F5F"/>
<path d="M27.3657 16.5991C28.1409 16.5991 28.7591 16.3761 29.2202 15.9303C29.6812 15.4844 29.9143 14.9372 29.9143 14.2886V14.0201H27.3049V14.5166H29.3772C29.3266 14.9777 29.1239 15.3526 28.7743 15.6516C28.4247 15.9505 27.9534 16.0975 27.3657 16.0975C26.7171 16.0975 26.1851 15.8847 25.7696 15.459C25.3592 15.0334 25.1515 14.5115 25.1515 13.8934C25.1515 13.2752 25.3592 12.7533 25.7696 12.3277C26.18 11.9021 26.7121 11.6893 27.3657 11.6893C27.7508 11.6893 28.1105 11.7856 28.4297 11.973C28.754 12.1605 28.9972 12.4189 29.1594 12.7381L29.6204 12.4696C29.4025 12.0795 29.0935 11.7704 28.6881 11.5322C28.2828 11.2941 27.842 11.1826 27.3606 11.1826C26.5702 11.1826 25.9166 11.4461 25.3997 11.968C24.8829 12.4899 24.6245 13.1334 24.6245 13.8934C24.6245 14.6534 24.8829 15.2918 25.3997 15.8188C25.9216 16.3356 26.5753 16.5991 27.3657 16.5991Z" fill="#605F5F"/>
<path d="M40.7169 16.0162H38.1835V14.1161H40.494V13.6196H38.1835V11.7651H40.6764V11.2686H37.6616V16.5077H40.7169V16.0162Z" fill="#605F5F"/>
<path d="M51.3674 16.0162H48.986V11.2686H48.4641V16.5077H51.3674V16.0162Z" fill="#605F5F"/>
<path d="M62.0231 16.0162H59.4897V14.1161H61.8001V13.6196H59.4897V11.7651H61.9826V11.2686H58.9678V16.5077H62.0231V16.0162Z" fill="#605F5F"/>
<path d="M70.2921 11.2686H69.7703V16.5077H70.2921V11.2686Z" fill="#605F5F"/>
<path d="M64.0952 25.8055C64.1155 25.7953 64.1307 25.7802 64.151 25.77C64.1307 25.7802 64.1104 25.7903 64.0952 25.8055Z" fill="#605F5F"/>
</svg>
