<svg width="136" height="72" viewBox="0 0 136 72" fill="none" xmlns="http://www.w3.org/2000/svg">
<path d="M56.9966 19.8722C59.3853 19.8722 61.3216 17.9358 61.3216 15.5472C61.3216 13.1585 59.3853 11.2222 56.9966 11.2222C54.608 11.2222 52.6716 13.1585 52.6716 15.5472C52.6716 17.9358 54.608 19.8722 56.9966 19.8722Z" fill="#605F5F"/>
<path d="M16.0232 60.8453C18.4119 60.8453 20.3483 58.909 20.3483 56.5203C20.3483 54.1317 18.4119 52.1953 16.0232 52.1953C13.6346 52.1953 11.6982 54.1317 11.6982 56.5203C11.6982 58.909 13.6346 60.8453 16.0232 60.8453Z" fill="#605F5F"/>
<path d="M56.9966 60.8453C59.3853 60.8453 61.3216 58.909 61.3216 56.5203C61.3216 54.1317 59.3853 52.1953 56.9966 52.1953C54.608 52.1953 52.6716 54.1317 52.6716 56.5203C52.6716 58.909 54.608 60.8453 56.9966 60.8453Z" fill="#605F5F"/>
<path d="M16.0232 19.8722C18.4119 19.8722 20.3483 17.9358 20.3483 15.5472C20.3483 13.1585 18.4119 11.2222 16.0232 11.2222C13.6346 11.2222 11.6982 13.1585 11.6982 15.5472C11.6982 17.9358 13.6346 19.8722 16.0232 19.8722Z" fill="#605F5F"/>
<path d="M46.2645 28.5646C46.2391 28.717 46.2137 28.8693 46.1883 29.0217C46.0868 29.995 46.1206 32.2549 48.3127 33.4567C48.3889 33.4906 49.3961 33.9222 51.5459 32.1448C55.4477 28.9201 56.7765 31.1715 63.0482 33.8715C63.0482 33.8715 65.2065 34.2523 64.267 32.2633C63.8777 31.4423 60.5176 27.4305 59.6712 27.1512C62.9213 27.8791 67.2886 31.3831 70.9619 35.268C70.9619 35.268 71.6559 36.0043 72.4177 35.4711C72.5785 35.3103 72.6716 35.0987 72.7139 34.8532C72.8409 34.083 72.7224 32.6188 71.7067 30.926C70.6826 29.2164 69.4469 27.9045 67.6525 26.2879C64.9695 23.8672 60.6445 21.5566 56.6157 21.4804C49.9124 21.3704 46.9162 25.0352 46.2645 28.5646ZM65.8751 26.965C64.7579 26.1355 63.6407 25.323 62.6758 24.6205C63.7253 25.2638 64.8002 26.0509 65.8751 26.965Z" fill="#605F5F"/>
<path d="M51.2667 16.1397C51.1905 12.1109 48.8799 7.79436 46.4592 5.10287C44.8426 3.30855 43.5308 2.07282 41.8211 1.0487C40.1283 0.0330476 38.6641 -0.0854348 37.8939 0.0415223C37.6484 0.0838413 37.4368 0.176935 37.276 0.337748C36.7343 1.09949 37.4792 1.79352 37.4792 1.79352C41.3556 5.46681 44.868 9.83414 45.5959 13.0842C45.3166 12.2379 41.3048 8.86927 40.4838 8.4884C38.4948 7.54891 38.8757 9.70719 38.8757 9.70719C41.5756 15.9789 43.8355 17.3077 40.6023 21.2095C38.8249 23.3593 39.2565 24.3665 39.2904 24.4427C40.5007 26.6433 42.7606 26.6686 43.7254 26.5671C43.8778 26.5502 44.0301 26.5248 44.1825 26.4909C47.7373 25.8477 51.3937 22.8515 51.2667 16.1397ZM48.1435 10.0881C47.4411 9.12318 46.6285 8.00596 45.7991 6.88874C46.7132 7.9721 47.5003 9.03854 48.1435 10.0881Z" fill="#605F5F"/>
<path d="M27.2717 43.4269C27.2971 43.2746 27.3225 43.1222 27.3478 42.9699C27.4494 41.9965 27.4155 39.7367 25.2234 38.5348C25.1472 38.501 24.1401 38.0693 21.9903 39.8467C18.0884 43.0714 16.7596 40.82 10.4879 38.1201C10.4879 38.1201 8.32968 37.7392 9.26916 39.7282C9.65849 40.5492 13.0186 44.561 13.865 44.8404C10.6149 44.1125 6.24758 40.6085 2.57428 36.7236C2.57428 36.7236 1.88025 35.9872 1.11851 36.5204C0.957697 36.6812 0.864603 36.8928 0.822284 37.1383C0.695327 37.9085 0.813809 39.3727 1.82947 41.0655C2.85359 42.7752 4.08931 44.0871 5.88364 45.7037C8.56666 48.1243 12.8917 50.4349 16.9204 50.5111C23.6238 50.6211 26.62 46.9648 27.2717 43.4269ZM7.66103 45.0266C8.77825 45.856 9.89547 46.6685 10.8603 47.371C9.81083 46.7278 8.74439 45.9491 7.66103 45.0266Z" fill="#605F5F"/>
<path d="M22.2696 55.8605C22.3457 59.8893 24.6564 64.2058 27.077 66.8973C28.6936 68.6916 30.0055 69.9273 31.7152 70.9515C33.4079 71.9671 34.8722 72.0856 35.6424 71.9586C35.8878 71.9163 36.0994 71.8232 36.2602 71.6624C36.8019 70.9007 36.0571 70.2066 36.0571 70.2066C32.1807 66.5333 28.6682 62.166 27.9403 58.9159C28.2196 59.7623 32.2315 63.1309 33.0524 63.5118C35.0414 64.4512 34.6606 62.293 34.6606 62.293C31.9606 56.0213 29.7008 54.6925 32.9339 50.7907C34.7113 48.6409 34.2797 47.6337 34.2458 47.5575C33.0355 45.3569 30.7757 45.3315 29.8108 45.4331C29.6585 45.45 29.5061 45.4754 29.3538 45.5093C25.8074 46.144 22.1426 49.1487 22.2696 55.8605ZM25.3927 61.9121C26.0952 62.877 26.9077 63.9942 27.7372 65.1114C26.8231 64.0281 26.036 62.9532 25.3927 61.9121Z" fill="#605F5F"/>
<path d="M46.2645 28.5646C46.2391 28.717 46.2137 28.8693 46.1883 29.0217C46.0868 29.995 46.1206 32.2549 48.3127 33.4567C48.3889 33.4906 49.3961 33.9222 51.5459 32.1448C55.4477 28.9201 56.7765 31.1715 63.0482 33.8715C63.0482 33.8715 65.2065 34.2523 64.267 32.2633C63.8777 31.4423 60.5176 27.4305 59.6712 27.1512C62.9213 27.8791 67.2886 31.3831 70.9619 35.268C70.9619 35.268 71.6559 36.0043 72.4177 35.4711C72.5785 35.3103 72.6716 35.0987 72.7139 34.8532C72.8409 34.083 72.7224 32.6188 71.7067 30.926C70.6826 29.2164 69.4469 27.9045 67.6525 26.2879C64.9695 23.8672 60.6445 21.5566 56.6157 21.4804C49.9124 21.3704 46.9162 25.0352 46.2645 28.5646ZM65.8751 26.965C64.7579 26.1355 63.6407 25.323 62.6758 24.6205C63.7253 25.2638 64.8002 26.0509 65.8751 26.965Z" fill="#605F5F"/>
<path d="M51.2667 16.1397C51.1905 12.1109 48.8799 7.79436 46.4592 5.10287C44.8426 3.30855 43.5308 2.07282 41.8211 1.0487C40.1283 0.0330476 38.6641 -0.0854348 37.8939 0.0415223C37.6484 0.0838413 37.4368 0.176935 37.276 0.337748C36.7343 1.09949 37.4792 1.79352 37.4792 1.79352C41.3556 5.46681 44.868 9.83414 45.5959 13.0842C45.3166 12.2379 41.3048 8.86927 40.4838 8.4884C38.4948 7.54891 38.8757 9.70719 38.8757 9.70719C41.5756 15.9789 43.8355 17.3077 40.6023 21.2095C38.8249 23.3593 39.2565 24.3665 39.2904 24.4427C40.5007 26.6433 42.7606 26.6686 43.7254 26.5671C43.8778 26.5502 44.0301 26.5248 44.1825 26.4909C47.7373 25.8477 51.3937 22.8515 51.2667 16.1397ZM48.1435 10.0881C47.4411 9.12318 46.6285 8.00596 45.7991 6.88874C46.7132 7.9721 47.5003 9.03854 48.1435 10.0881Z" fill="#605F5F"/>
<path d="M27.2717 43.4269C27.2971 43.2746 27.3225 43.1222 27.3478 42.9699C27.4494 41.9965 27.4155 39.7367 25.2234 38.5348C25.1472 38.501 24.1401 38.0693 21.9903 39.8467C18.0884 43.0714 16.7596 40.82 10.4879 38.1201C10.4879 38.1201 8.32968 37.7392 9.26916 39.7282C9.65849 40.5492 13.0186 44.561 13.865 44.8404C10.6149 44.1125 6.24758 40.6085 2.57428 36.7236C2.57428 36.7236 1.88025 35.9872 1.11851 36.5204C0.957697 36.6812 0.864603 36.8928 0.822284 37.1383C0.695327 37.9085 0.813809 39.3727 1.82947 41.0655C2.85359 42.7752 4.08931 44.0871 5.88364 45.7037C8.56666 48.1243 12.8917 50.4349 16.9204 50.5111C23.6238 50.6211 26.62 46.9648 27.2717 43.4269ZM7.66103 45.0266C8.77825 45.856 9.89547 46.6685 10.8603 47.371C9.81083 46.7278 8.74439 45.9491 7.66103 45.0266Z" fill="#605F5F"/>
<path d="M22.2696 55.8605C22.3457 59.8893 24.6564 64.2058 27.077 66.8973C28.6936 68.6916 30.0055 69.9273 31.7152 70.9515C33.4079 71.9671 34.8722 72.0856 35.6424 71.9586C35.8878 71.9163 36.0994 71.8232 36.2602 71.6624C36.8019 70.9007 36.0571 70.2066 36.0571 70.2066C32.1807 66.5333 28.6682 62.166 27.9403 58.9159C28.2196 59.7623 32.2315 63.1309 33.0524 63.5118C35.0414 64.4512 34.6606 62.293 34.6606 62.293C31.9606 56.0213 29.7008 54.6925 32.9339 50.7907C34.7113 48.6409 34.2797 47.6337 34.2458 47.5575C33.0355 45.3569 30.7757 45.3315 29.8108 45.4331C29.6585 45.45 29.5061 45.4754 29.3538 45.5093C25.8074 46.144 22.1426 49.1487 22.2696 55.8605ZM25.3927 61.9121C26.0952 62.877 26.9077 63.9942 27.7372 65.1114C26.8231 64.0281 26.036 62.9532 25.3927 61.9121Z" fill="#605F5F"/>
<path d="M44.1994 45.4925C44.047 45.4671 43.8947 45.4418 43.7423 45.4164C42.769 45.3148 40.5091 45.3486 39.3073 47.5408C39.2734 47.6169 38.8418 48.6241 40.6192 50.7739C43.8439 54.6758 41.5925 56.0046 38.8925 62.2763C38.8925 62.2763 38.5117 64.4345 40.5007 63.4951C41.3217 63.1057 45.3335 59.7456 45.6128 58.8992C44.8849 62.1493 41.3809 66.5166 37.496 70.1899C37.496 70.1899 36.7597 70.8839 37.2929 71.6457C37.4537 71.8065 37.6653 71.8996 37.9108 71.9419C38.681 72.0689 40.1452 71.9504 41.838 70.9347C43.5476 69.9106 44.8595 68.6749 46.4761 66.8806C48.8968 64.1975 51.2074 59.8725 51.2836 55.8438C51.3936 49.1489 47.7372 46.1442 44.1994 45.4925ZM45.799 65.1032C46.6285 63.9859 47.441 62.8687 48.1435 61.9039C47.5002 62.9534 46.7131 64.0283 45.799 65.1032Z" fill="#605F5F"/>
<path d="M56.6327 50.503C60.6615 50.4268 64.978 48.1162 67.6695 45.6956C69.4638 44.079 70.6995 42.7671 71.7237 41.0574C72.7393 39.3647 72.8578 37.9004 72.7309 37.1302C72.6885 36.8848 72.5954 36.6732 72.4346 36.5124C71.6729 35.9707 70.9788 36.7155 70.9788 36.7155C67.3055 40.5919 62.9382 44.1044 59.6881 44.8323C60.5345 44.553 63.9031 40.5411 64.284 39.7201C65.2234 37.7311 63.0652 38.112 63.0652 38.112C56.7935 40.812 55.4647 43.0718 51.5629 39.8386C49.4131 38.0612 48.4059 38.4929 48.3297 38.5267C46.1291 39.7371 46.1037 41.9969 46.2053 42.9618C46.2222 43.1141 46.2476 43.2665 46.2815 43.4188C46.9162 46.9652 49.9124 50.6215 56.6327 50.503ZM62.6758 47.3799C63.6407 46.6774 64.7579 45.8649 65.8752 45.0354C64.8003 45.9495 63.7254 46.7282 62.6758 47.3799Z" fill="#605F5F"/>
<path d="M29.3369 26.4997C29.4892 26.5251 29.6416 26.5505 29.7939 26.5759C30.7673 26.6774 33.0271 26.6436 34.229 24.4515C34.2628 24.3753 34.6945 23.3681 32.9171 21.2183C29.6924 17.3165 31.9437 15.9877 34.6437 9.71597C34.6437 9.71597 35.0245 7.5577 33.0356 8.49718C32.2146 8.88652 28.2027 12.2467 27.9234 13.093C28.6513 9.84294 32.1553 5.47562 36.0402 1.80232C36.0402 1.80232 36.7766 1.10829 36.2433 0.346548C36.0825 0.185736 35.8709 0.092629 35.6255 0.05031C34.8553 -0.0766471 33.391 0.0418482 31.6983 1.0575C29.9886 2.08163 28.6767 3.31734 27.0601 5.11166C24.6395 7.79469 22.3288 12.1197 22.2527 16.1485C22.1426 22.8518 25.8075 25.848 29.3369 26.4997ZM27.7372 6.88907C26.9078 8.00629 26.0952 9.12351 25.3927 10.0884C26.036 9.03887 26.8231 7.97243 27.7372 6.88907Z" fill="#605F5F"/>
<path d="M16.9036 21.4973C12.8748 21.5735 8.55828 23.8841 5.86679 26.3048C4.07246 27.9214 2.83675 29.2333 1.81263 30.943C0.796975 32.6357 0.67848 34.1 0.805437 34.8702C0.847756 35.1156 0.94085 35.3272 1.10166 35.488C1.8634 36.0297 2.55744 35.2849 2.55744 35.2849C6.23073 31.4085 10.5981 27.896 13.8482 27.1681C13.0018 27.4474 9.63318 31.4592 9.25231 32.2802C8.31283 34.2692 10.4711 33.8884 10.4711 33.8884C16.7428 31.1884 18.0716 28.9286 21.9734 32.1617C24.1232 33.9391 25.1304 33.5075 25.2066 33.4736C27.4072 32.2633 27.4326 30.0035 27.331 29.0386C27.3141 28.8863 27.2887 28.7339 27.2548 28.5816C26.62 25.0352 23.6239 21.3704 16.9036 21.4973ZM10.8604 24.6205C9.89556 25.323 8.77833 26.1355 7.66111 26.965C8.74448 26.0509 9.81092 25.2637 10.8604 24.6205Z" fill="#605F5F"/>
<path d="M40.2891 30.7822V41.8614C40.2891 42.3184 39.9166 42.6993 39.4511 42.6993H34.7453C34.2882 42.6993 33.9073 42.3269 33.9073 41.8614V30.7822C33.9073 30.3252 34.2797 29.9443 34.7453 29.9443H39.4511C39.9082 29.9528 40.2891 30.3252 40.2891 30.7822Z" fill="#605F5F"/>
<path d="M42.642 39.517H31.5629C31.1059 39.517 30.725 39.1446 30.725 38.679V33.9732C30.725 33.5161 31.0974 33.1353 31.5629 33.1353H42.642C43.0991 33.1353 43.4799 33.5077 43.4799 33.9732V38.679C43.4715 39.1446 43.0991 39.517 42.642 39.517Z" fill="#605F5F"/>
<path d="M88.1094 19.3395V27.9134H86.9837V21.21L84.1822 25.8736L84.0467 25.8651L81.2283 21.1931V27.9049H80.0857V19.3311H81.3722L84.1145 23.8846L86.8398 19.3311H88.1094V19.3395Z" fill="#605F5F"/>
<path d="M97.0895 26.7787C96.2262 27.642 95.1766 28.0737 93.9325 28.0737C92.6883 28.0737 91.6388 27.642 90.7839 26.7787C89.9291 25.9154 89.4974 24.8659 89.4974 23.6302C89.4974 22.386 89.9291 21.3365 90.7839 20.4732C91.6388 19.6099 92.6883 19.1782 93.9325 19.1782C95.1766 19.1782 96.2262 19.6099 97.0895 20.4732C97.9528 21.3365 98.3844 22.386 98.3844 23.6302C98.376 24.8574 97.9528 25.9069 97.0895 26.7787ZM91.5711 26C92.2059 26.6433 92.993 26.9649 93.9325 26.9649C94.8719 26.9649 95.6591 26.6433 96.2939 26C96.9287 25.3568 97.2418 24.5697 97.2418 23.6302C97.2418 22.6822 96.9287 21.8866 96.2939 21.2434C95.6591 20.6001 94.8719 20.2785 93.9325 20.2785C92.993 20.2785 92.2059 20.6001 91.5711 21.2434C90.9363 21.8866 90.6231 22.6822 90.6231 23.6302C90.6231 24.5697 90.9448 25.3568 91.5711 26Z" fill="#605F5F"/>
<path d="M104.656 23.4697C105.045 23.6559 105.359 23.9267 105.596 24.2822C105.824 24.6292 105.943 25.0355 105.943 25.4925C105.943 26.1781 105.706 26.7537 105.223 27.2192C104.741 27.6847 104.157 27.9132 103.463 27.9132H99.764V19.3394H103.192C103.861 19.3394 104.428 19.5679 104.893 20.0165C105.359 20.465 105.587 21.0237 105.587 21.6838C105.587 22.4371 105.274 23.038 104.656 23.4697ZM103.183 20.4058H100.89V23.0296H103.183C103.539 23.0296 103.844 22.9026 104.089 22.6487C104.334 22.3948 104.453 22.0816 104.453 21.7177C104.453 21.3622 104.326 21.049 104.081 20.7951C103.835 20.5328 103.53 20.4058 103.183 20.4058ZM103.454 26.8468C103.835 26.8468 104.157 26.7113 104.419 26.4405C104.682 26.1696 104.808 25.8396 104.808 25.4502C104.808 25.0694 104.673 24.7393 104.411 24.4684C104.148 24.1976 103.827 24.0622 103.446 24.0622H100.881V26.8468H103.454Z" fill="#605F5F"/>
<path d="M107.288 19.3394H108.431V27.9132H107.288V19.3394Z" fill="#605F5F"/>
<path d="M111.402 26.8383H115.1V27.9132H110.259V19.3394H111.402V26.8383Z" fill="#605F5F"/>
<path d="M116.243 19.3394H117.386V27.9132H116.243V19.3394Z" fill="#605F5F"/>
<path d="M124.707 19.3394V20.4143H122.168V27.9132H121.042V20.4143H118.52V19.3394H124.707Z" fill="#605F5F"/>
<path d="M132.214 19.3394L129.176 24.4515V27.9217H128.033V24.443L125.011 19.3478H126.281L128.617 23.3766L130.936 19.3478H132.214V19.3394Z" fill="#605F5F"/>
<path d="M82.8534 41.4467C82.0494 41.4467 81.3723 41.2605 80.8052 40.8797C80.2381 40.5073 79.8403 39.991 79.6118 39.3392L80.5936 38.7722C80.9322 39.8132 81.6939 40.3295 82.8873 40.3295C83.4713 40.3295 83.9283 40.211 84.233 39.9656C84.5462 39.7286 84.6986 39.407 84.6986 39.0007C84.6986 38.5944 84.5462 38.2897 84.233 38.0781C83.9199 37.875 83.4036 37.655 82.6757 37.4264C82.3202 37.3079 82.0494 37.2064 81.8547 37.1471C81.6685 37.0794 81.4315 36.9779 81.1438 36.834C80.8645 36.6901 80.6529 36.5462 80.509 36.3938C80.3736 36.2415 80.2466 36.0468 80.1366 35.8014C80.0265 35.5559 79.9758 35.2766 79.9758 34.9719C79.9758 34.2271 80.2381 33.6346 80.7629 33.203C81.2876 32.7629 81.9224 32.5513 82.6757 32.5513C83.3528 32.5513 83.9453 32.7205 84.4446 33.0676C84.944 33.4146 85.3249 33.8632 85.5788 34.4302L84.6224 34.9804C84.2584 34.1002 83.6067 33.66 82.6757 33.66C82.2102 33.66 81.8378 33.7785 81.55 34.007C81.2623 34.2356 81.1184 34.5487 81.1184 34.9381C81.1184 35.3105 81.2538 35.5982 81.5246 35.7929C81.7955 35.9876 82.261 36.1907 82.9212 36.4023C83.1497 36.4869 83.319 36.5462 83.4205 36.58C83.5221 36.6139 83.6744 36.6732 83.886 36.7409C84.0976 36.817 84.25 36.8763 84.3431 36.9271C84.4446 36.9779 84.5716 37.0456 84.7409 37.1387C84.9102 37.2318 85.0287 37.3164 85.1133 37.3926C85.1979 37.4772 85.291 37.5788 85.4011 37.6973C85.5111 37.8158 85.5873 37.9343 85.638 38.0612C85.6888 38.1882 85.7311 38.3236 85.765 38.4844C85.7988 38.6452 85.8242 38.8145 85.8242 38.9922C85.8242 39.7455 85.5534 40.3464 85.0033 40.7866C84.4531 41.2267 83.7421 41.4467 82.8534 41.4467Z" fill="#605F5F"/>
<path d="M91.1395 41.4467C89.8445 41.4467 88.7696 41.0151 87.9233 40.1602C87.0769 39.3054 86.6537 38.2474 86.6537 37.0032C86.6537 35.7506 87.0769 34.7011 87.9233 33.8378C88.7696 32.9829 89.8445 32.5513 91.1395 32.5513C91.9266 32.5513 92.646 32.7375 93.2978 33.1184C93.9579 33.4908 94.4658 33.9986 94.8382 34.6418L93.8479 35.2174C93.6025 34.7434 93.2385 34.3625 92.7476 34.0832C92.2652 33.8039 91.7235 33.66 91.1395 33.66C90.1492 33.66 89.3452 33.9817 88.7189 34.6164C88.0925 35.2512 87.7794 36.0468 87.7794 37.0032C87.7794 37.9512 88.0925 38.7383 88.7189 39.3816C89.3452 40.0164 90.1492 40.338 91.1395 40.338C91.732 40.338 92.2652 40.1941 92.7476 39.9148C93.23 39.6355 93.6025 39.2631 93.8479 38.7976L94.8382 39.3646C94.4827 39.9994 93.9664 40.5073 93.3062 40.8881C92.646 41.2605 91.9266 41.4467 91.1395 41.4467Z" fill="#605F5F"/>
<path d="M96.1246 32.7124H97.2672V41.2862H96.1246V32.7124Z" fill="#605F5F"/>
<path d="M100.238 40.2113H104.216V41.2862H99.0955V32.7124H104.157V33.7873H100.238V36.4196H103.852V37.486H100.238V40.2113Z" fill="#605F5F"/>
<path d="M110.928 32.7124H112.071V41.2862H111.148L106.738 34.8791V41.2862H105.596V32.7124H106.476L110.928 39.1534V32.7124Z" fill="#605F5F"/>
<path d="M117.936 41.4467C116.641 41.4467 115.566 41.0151 114.72 40.1602C113.873 39.3054 113.45 38.2474 113.45 37.0032C113.45 35.7506 113.873 34.7011 114.72 33.8378C115.566 32.9829 116.641 32.5513 117.936 32.5513C118.723 32.5513 119.442 32.7375 120.094 33.1184C120.754 33.4908 121.262 33.9986 121.635 34.6418L120.644 35.2174C120.399 34.7434 120.035 34.3625 119.544 34.0832C119.062 33.8039 118.52 33.66 117.936 33.66C116.946 33.66 116.142 33.9817 115.515 34.6164C114.889 35.2512 114.576 36.0468 114.576 37.0032C114.576 37.9512 114.889 38.7383 115.515 39.3816C116.142 40.0164 116.946 40.338 117.936 40.338C118.52 40.338 119.062 40.1941 119.544 39.9148C120.026 39.6355 120.399 39.2631 120.644 38.7976L121.635 39.3646C121.279 39.9994 120.763 40.5073 120.103 40.8881C119.442 41.2605 118.715 41.4467 117.936 41.4467Z" fill="#605F5F"/>
<path d="M124.055 40.2113H128.033V41.2862H122.913V32.7124H127.974V33.7873H124.055V36.4196H127.669V37.486H124.055V40.2113Z" fill="#605F5F"/>
<path d="M85.7396 54.6671L85.0371 52.7458H81.1776L80.4751 54.6671H79.2648L82.4641 46.0933H83.7506L86.9499 54.6671H85.7396ZM81.5669 51.6794H84.6477L83.1073 47.4475L81.5669 51.6794Z" fill="#605F5F"/>
<path d="M91.6897 54.8281C90.3947 54.8281 89.3198 54.3964 88.4734 53.5416C87.627 52.6867 87.2039 51.6288 87.2039 50.3846C87.2039 49.1319 87.627 48.0824 88.4734 47.2191C89.3198 46.3643 90.3947 45.9326 91.6897 45.9326C92.4768 45.9326 93.1962 46.1188 93.8479 46.4997C94.5081 46.8721 95.0159 47.3799 95.3883 48.0232L94.3981 48.5987C94.1526 48.1247 93.7887 47.7439 93.2978 47.4646C92.8153 47.1853 92.2737 47.0414 91.6897 47.0414C90.6994 47.0414 89.8953 47.363 89.269 47.9978C88.6427 48.6326 88.3295 49.4282 88.3295 50.3846C88.3295 51.3325 88.6427 52.1197 89.269 52.7629C89.8953 53.3977 90.6994 53.7193 91.6897 53.7193C92.2821 53.7193 92.8153 53.5754 93.2978 53.2961C93.7802 53.0168 94.1526 52.6444 94.3981 52.1789L95.3883 52.746C95.0329 53.3808 94.5166 53.8886 93.8564 54.2695C93.1962 54.6334 92.4768 54.8281 91.6897 54.8281Z" fill="#605F5F"/>
<path d="M102.227 54.6671L101.524 52.7458H97.665L96.9625 54.6671H95.7522L98.9515 46.0933H100.238L103.437 54.6671H102.227ZM98.0544 51.6794H101.135L99.5947 47.4475L98.0544 51.6794Z" fill="#605F5F"/>
<path d="M107.805 46.0933C108.973 46.0933 109.946 46.508 110.716 47.3374C111.487 48.1669 111.876 49.1826 111.876 50.3844C111.876 51.5863 111.487 52.6019 110.716 53.4314C109.946 54.2608 108.973 54.6756 107.805 54.6756H104.462V46.0933H107.805ZM107.805 53.5922C108.677 53.5922 109.396 53.2875 109.946 52.6696C110.505 52.0602 110.776 51.29 110.776 50.376C110.776 49.4619 110.496 48.7001 109.946 48.0823C109.387 47.4729 108.677 47.1597 107.805 47.1597H105.596V53.5753H107.805V53.5922Z" fill="#605F5F"/>
<path d="M114.39 53.5922H118.368V54.6671H113.247V46.0933H118.308V47.1682H114.39V49.8004H118.004V50.8668H114.39V53.5922Z" fill="#605F5F"/>
<path d="M127.771 46.0933V54.6671H126.645V47.9638L123.844 52.6358L123.708 52.6273L120.898 47.9553V54.6671H119.755V46.0933H121.042L123.784 50.6468L126.51 46.0933H127.771Z" fill="#605F5F"/>
<path d="M135.989 46.0933L132.951 51.2054V54.6756H131.808V51.1969L128.778 46.1017H130.056L132.392 50.1305L134.711 46.1017H135.989V46.0933Z" fill="#605F5F"/>
<path d="M78.9602 60.6768H79.7558V60.7868H78.8417V59.2041H79.7388V59.3141H78.9602V59.932H79.6881V60.042H78.9602V60.6768Z" fill="#605F5F"/>
<path d="M80.4751 60.7956L79.8827 59.2129H80.0181L80.5429 60.6433L81.0676 59.2129H81.1946L80.6021 60.7956H80.4751Z" fill="#605F5F"/>
<path d="M81.5416 60.6768H82.3372V60.7868H81.4231V59.2041H82.3203V59.3141H81.5416V59.932H82.2695V60.042H81.5416V60.6768Z" fill="#605F5F"/>
<path d="M83.6236 60.7956L83.2427 60.1439H82.7434V60.7956H82.6249V59.2129H83.2512C83.3781 59.2129 83.4882 59.2552 83.5813 59.3483C83.6744 59.4414 83.7167 59.5514 83.7167 59.6784C83.7167 59.7884 83.6829 59.8815 83.6152 59.9662C83.5474 60.0508 83.4628 60.1016 83.3612 60.1355L83.759 60.8041H83.6236V60.7956ZM82.7434 59.3229V60.0339H83.2512C83.3443 60.0339 83.4289 60 83.4966 59.9323C83.5644 59.8646 83.5982 59.78 83.5982 59.6784C83.5982 59.5768 83.5644 59.5007 83.4966 59.4245C83.4289 59.3568 83.3443 59.3229 83.2512 59.3229H82.7434Z" fill="#605F5F"/>
<path d="M85.0625 59.2129L84.487 60.1439V60.7956H84.3685V60.1439L83.793 59.2129H83.9284L84.4278 60.0254L84.9271 59.2129H85.0625Z" fill="#605F5F"/>
<path d="M86.2559 59.2129V59.3229H85.7565V60.7956H85.638V59.3229H85.1387V59.2129H86.2559Z" fill="#605F5F"/>
<path d="M87.5509 59.2129H87.6694V60.7956H87.5509V60.0339H86.6284V60.7956H86.5099V59.2129H86.6284V59.9239H87.5509V59.2129Z" fill="#605F5F"/>
<path d="M88.0587 59.2129H88.1772V60.7956H88.0587V59.2129Z" fill="#605F5F"/>
<path d="M89.6161 59.2129H89.7346V60.7956H89.6246L88.6936 59.433V60.7956H88.5751V59.2129H88.6766L89.6161 60.584V59.2129Z" fill="#605F5F"/>
<path d="M91.6388 60.0589V60.1182C91.6388 60.3129 91.5711 60.4821 91.4272 60.6176C91.2834 60.753 91.1056 60.8207 90.8771 60.8207C90.6316 60.8207 90.437 60.7445 90.2762 60.5837C90.1154 60.4229 90.0392 60.2367 90.0392 59.9997C90.0392 59.7627 90.1154 59.5765 90.2762 59.4157C90.4285 59.2549 90.6316 59.1787 90.8686 59.1787C91.0125 59.1787 91.1479 59.2126 91.2664 59.2803C91.3849 59.348 91.478 59.4411 91.5457 59.5596L91.4357 59.6188C91.3849 59.5173 91.3088 59.4411 91.1987 59.3818C91.0972 59.3226 90.9787 59.2887 90.8602 59.2887C90.657 59.2887 90.4878 59.3564 90.3523 59.4919C90.2169 59.6273 90.1577 59.7966 90.1577 59.9912C90.1577 60.1859 90.2254 60.3552 90.3608 60.4906C90.4962 60.626 90.6655 60.6937 90.8771 60.6937C91.0633 60.6937 91.2156 60.6429 91.3257 60.5414C91.4442 60.4398 91.5034 60.3129 91.5204 60.1605H90.8517V60.0505H91.6388V60.0589Z" fill="#605F5F"/>
<path d="M93.6448 59.2129L93.0693 60.1439V60.7956H92.9508V60.1439L92.3752 59.2129H92.5107L93.01 60.0254L93.5094 59.2129H93.6448Z" fill="#605F5F"/>
<path d="M95.0498 60.5756C94.889 60.7364 94.6943 60.8125 94.4743 60.8125C94.2457 60.8125 94.0511 60.7364 93.8987 60.5756C93.7379 60.4148 93.6617 60.2201 93.6617 60C93.6617 59.78 93.7379 59.5853 93.8987 59.4245C94.0595 59.2637 94.2542 59.1875 94.4743 59.1875C94.7028 59.1875 94.8974 59.2637 95.0498 59.4245C95.2106 59.5853 95.2868 59.78 95.2868 60C95.2868 60.2201 95.2106 60.4232 95.0498 60.5756ZM93.9834 60.4994C94.1188 60.6348 94.2796 60.7025 94.4743 60.7025C94.6689 60.7025 94.8297 60.6348 94.9652 60.4994C95.1006 60.364 95.1683 60.1947 95.1683 60C95.1683 59.8054 95.1006 59.6361 94.9652 59.5007C94.8297 59.3652 94.6689 59.2975 94.4743 59.2975C94.2796 59.2975 94.1188 59.3652 93.9834 59.5007C93.848 59.6361 93.7802 59.8054 93.7802 60C93.7802 60.1947 93.848 60.364 93.9834 60.4994Z" fill="#605F5F"/>
<path d="M96.5648 60.6683C96.4548 60.7699 96.3194 60.8207 96.1416 60.8207C95.9639 60.8207 95.8285 60.7699 95.7184 60.6683C95.6169 60.5668 95.5576 60.4314 95.5576 60.2621V59.2041H95.6761V60.2621C95.6761 60.3975 95.7184 60.4991 95.7946 60.5837C95.8708 60.6599 95.9893 60.7022 96.1331 60.7022C96.277 60.7022 96.3955 60.6599 96.4717 60.5837C96.5563 60.5075 96.5902 60.3975 96.5902 60.2621V59.2041H96.7087V60.2621C96.7171 60.4314 96.6664 60.5668 96.5648 60.6683Z" fill="#605F5F"/>
<path d="M98.74 59.2129H98.8585V60.7956H98.7485L97.8175 59.433V60.7956H97.699V59.2129H97.8005L98.74 60.584V59.2129Z" fill="#605F5F"/>
<path d="M99.3664 60.6768H100.162V60.7868H99.2479V59.2041H100.145V59.3141H99.3664V59.932H100.094V60.042H99.3664V60.6768Z" fill="#605F5F"/>
<path d="M100.577 60.6768H101.372V60.7868H100.458V59.2041H101.355V59.3141H100.577V59.932H101.305V60.042H100.577V60.6768Z" fill="#605F5F"/>
<path d="M102.261 59.2126C102.473 59.2126 102.659 59.2887 102.794 59.4411C102.938 59.5934 103.006 59.7796 103.006 59.9997C103.006 60.2198 102.938 60.406 102.794 60.5583C102.65 60.7107 102.473 60.7868 102.261 60.7868H101.668V59.2041H102.261V59.2126ZM102.261 60.6768C102.447 60.6768 102.599 60.6091 102.71 60.4821C102.828 60.3552 102.887 60.1944 102.887 59.9997C102.887 59.805 102.828 59.6442 102.71 59.5173C102.591 59.3903 102.439 59.3226 102.261 59.3226H101.787V60.6768H102.261Z" fill="#605F5F"/>
<path d="M104.885 59.2129V59.3229H104.385V60.7956H104.267V59.3229H103.768V59.2129H104.885Z" fill="#605F5F"/>
<path d="M106.349 60.5756C106.188 60.7364 105.994 60.8125 105.773 60.8125C105.545 60.8125 105.35 60.7364 105.198 60.5756C105.037 60.4148 104.961 60.2201 104.961 60C104.961 59.78 105.037 59.5853 105.198 59.4245C105.359 59.2637 105.553 59.1875 105.773 59.1875C106.002 59.1875 106.197 59.2637 106.349 59.4245C106.501 59.5853 106.586 59.78 106.586 60C106.586 60.2201 106.51 60.4232 106.349 60.5756ZM105.274 60.4994C105.41 60.6348 105.57 60.7025 105.765 60.7025C105.96 60.7025 106.121 60.6348 106.256 60.4994C106.391 60.364 106.459 60.1947 106.459 60C106.459 59.8054 106.391 59.6361 106.256 59.5007C106.121 59.3652 105.96 59.2975 105.765 59.2975C105.57 59.2975 105.41 59.3652 105.274 59.5007C105.139 59.6361 105.071 59.8054 105.071 60C105.071 60.1947 105.139 60.364 105.274 60.4994Z" fill="#605F5F"/>
<path d="M108.566 60.7956H108.406L107.61 60.017V60.7956H107.492V59.2129H107.61V59.9493L108.38 59.2129H108.541L107.737 59.9831L108.566 60.7956Z" fill="#605F5F"/>
<path d="M109.828 59.2129H109.946V60.7956H109.836L108.905 59.433V60.7956H108.786V59.2129H108.888L109.828 60.584V59.2129Z" fill="#605F5F"/>
<path d="M111.647 60.5756C111.487 60.7364 111.292 60.8125 111.072 60.8125C110.843 60.8125 110.649 60.7364 110.496 60.5756C110.335 60.4148 110.259 60.2201 110.259 60C110.259 59.78 110.335 59.5853 110.496 59.4245C110.657 59.2637 110.852 59.1875 111.072 59.1875C111.3 59.1875 111.495 59.2637 111.647 59.4245C111.808 59.5853 111.884 59.78 111.884 60C111.884 60.2201 111.808 60.4232 111.647 60.5756ZM110.572 60.4994C110.708 60.6348 110.869 60.7025 111.063 60.7025C111.258 60.7025 111.419 60.6348 111.554 60.4994C111.69 60.364 111.757 60.1947 111.757 60C111.757 59.8054 111.69 59.6361 111.554 59.5007C111.419 59.3652 111.258 59.2975 111.063 59.2975C110.869 59.2975 110.708 59.3652 110.572 59.5007C110.437 59.6361 110.369 59.8054 110.369 60C110.369 60.1947 110.437 60.364 110.572 60.4994Z" fill="#605F5F"/>
<path d="M112.46 60.7956L112.003 59.2129H112.121L112.536 60.6348L112.976 59.2129H113.12L113.56 60.6433L113.966 59.2129H114.085L113.628 60.7956H113.484L113.035 59.3568L112.587 60.7956H112.46Z" fill="#605F5F"/>
<path d="M116.641 60.7956L116.489 60.3894H115.693L115.541 60.7956H115.414L116.032 59.2129H116.159L116.768 60.7956H116.641ZM115.735 60.2793H116.438L116.082 59.3568L115.735 60.2793Z" fill="#605F5F"/>
<path d="M117.843 59.9746C117.927 60.0085 117.987 60.0593 118.038 60.127C118.088 60.1947 118.114 60.2793 118.114 60.364C118.114 60.4825 118.071 60.584 117.987 60.6687C117.902 60.7533 117.801 60.7956 117.682 60.7956H116.996V59.2129H117.631C117.75 59.2129 117.843 59.2552 117.927 59.3314C118.012 59.4076 118.046 59.5091 118.046 59.6276C118.046 59.7038 118.029 59.7715 117.987 59.8308C117.953 59.89 117.902 59.9408 117.843 59.9746ZM117.631 59.3229H117.123V59.9323H117.631C117.716 59.9323 117.784 59.8985 117.843 59.8392C117.902 59.78 117.927 59.7123 117.927 59.6276C117.927 59.543 117.902 59.4753 117.843 59.416C117.784 59.3483 117.707 59.3229 117.631 59.3229ZM117.682 60.6771C117.767 60.6771 117.843 60.6433 117.902 60.584C117.961 60.5248 117.995 60.4486 117.995 60.3555C117.995 60.2709 117.961 60.1947 117.902 60.127C117.843 60.0677 117.767 60.0339 117.682 60.0339H117.115V60.6687H117.682V60.6771Z" fill="#605F5F"/>
<path d="M119.713 60.5756C119.553 60.7364 119.358 60.8125 119.138 60.8125C118.909 60.8125 118.715 60.7364 118.562 60.5756C118.401 60.4148 118.325 60.2201 118.325 60C118.325 59.78 118.401 59.5853 118.562 59.4245C118.723 59.2637 118.918 59.1875 119.138 59.1875C119.366 59.1875 119.561 59.2637 119.713 59.4245C119.866 59.5853 119.95 59.78 119.95 60C119.95 60.2201 119.874 60.4232 119.713 60.5756ZM118.638 60.4994C118.774 60.6348 118.935 60.7025 119.129 60.7025C119.324 60.7025 119.485 60.6348 119.62 60.4994C119.756 60.364 119.823 60.1947 119.823 60C119.823 59.8054 119.756 59.6361 119.62 59.5007C119.485 59.3652 119.324 59.2975 119.129 59.2975C118.935 59.2975 118.774 59.3652 118.638 59.5007C118.503 59.6361 118.435 59.8054 118.435 60C118.435 60.1947 118.503 60.364 118.638 60.4994Z" fill="#605F5F"/>
<path d="M121.22 60.6683C121.11 60.7699 120.974 60.8207 120.797 60.8207C120.619 60.8207 120.483 60.7699 120.373 60.6683C120.272 60.5668 120.213 60.4314 120.213 60.2621V59.2041H120.331V60.2621C120.331 60.3975 120.373 60.4991 120.45 60.5837C120.526 60.6599 120.644 60.7022 120.788 60.7022C120.932 60.7022 121.051 60.6599 121.127 60.5837C121.211 60.5075 121.245 60.3975 121.245 60.2621V59.2041H121.364V60.2621C121.381 60.4314 121.33 60.5668 121.22 60.6683Z" fill="#605F5F"/>
<path d="M122.726 59.2129V59.3229H122.227V60.7956H122.109V59.3229H121.609V59.2129H122.726Z" fill="#605F5F"/>
<path d="M125.012 59.2126V60.7953H124.893V59.3903L124.309 60.3636H124.292L123.7 59.3818V60.7868H123.581V59.2041H123.734L124.301 60.1436L124.868 59.2041H125.012V59.2126Z" fill="#605F5F"/>
<path d="M126.713 60.5756C126.552 60.7364 126.358 60.8125 126.137 60.8125C125.909 60.8125 125.714 60.7364 125.562 60.5756C125.401 60.4148 125.325 60.2201 125.325 60C125.325 59.78 125.401 59.5853 125.562 59.4245C125.723 59.2637 125.917 59.1875 126.137 59.1875C126.366 59.1875 126.561 59.2637 126.713 59.4245C126.874 59.5853 126.95 59.78 126.95 60C126.95 60.2201 126.865 60.4232 126.713 60.5756ZM125.638 60.4994C125.774 60.6348 125.934 60.7025 126.129 60.7025C126.324 60.7025 126.484 60.6348 126.62 60.4994C126.755 60.364 126.823 60.1947 126.823 60C126.823 59.8054 126.755 59.6361 126.62 59.5007C126.484 59.3652 126.324 59.2975 126.129 59.2975C125.934 59.2975 125.774 59.3652 125.638 59.5007C125.503 59.6361 125.435 59.8054 125.435 60C125.435 60.1947 125.503 60.364 125.638 60.4994Z" fill="#605F5F"/>
<path d="M128.092 59.9746C128.177 60.0085 128.236 60.0593 128.287 60.127C128.338 60.1947 128.363 60.2793 128.363 60.364C128.363 60.4825 128.321 60.584 128.236 60.6687C128.152 60.7533 128.05 60.7956 127.932 60.7956H127.246V59.2129H127.881C127.999 59.2129 128.092 59.2552 128.177 59.3314C128.262 59.4076 128.296 59.5091 128.296 59.6276C128.296 59.7038 128.279 59.7715 128.236 59.8308C128.202 59.89 128.152 59.9408 128.092 59.9746ZM127.881 59.3229H127.373V59.9323H127.881C127.966 59.9323 128.033 59.8985 128.092 59.8392C128.152 59.78 128.177 59.7123 128.177 59.6276C128.177 59.543 128.152 59.4753 128.092 59.416C128.033 59.3483 127.966 59.3229 127.881 59.3229ZM127.932 60.6771C128.016 60.6771 128.092 60.6433 128.152 60.584C128.211 60.5248 128.245 60.4486 128.245 60.3555C128.245 60.2709 128.211 60.1947 128.152 60.127C128.092 60.0677 128.016 60.0339 127.932 60.0339H127.365V60.6687H127.932V60.6771Z" fill="#605F5F"/>
<path d="M128.66 59.2129H128.778V60.7956H128.66V59.2129Z" fill="#605F5F"/>
<path d="M129.294 60.6768H130.039V60.7868H129.176V59.2041H129.294V60.6768Z" fill="#605F5F"/>
<path d="M130.285 59.2129H130.403V60.7956H130.285V59.2129Z" fill="#605F5F"/>
<path d="M131.774 59.2129V59.3229H131.275V60.7956H131.156V59.3229H130.657V59.2129H131.774Z" fill="#605F5F"/>
<path d="M133.12 59.2129L132.545 60.1439V60.7956H132.426V60.1439L131.85 59.2129H131.986L132.485 60.0254L132.985 59.2129H133.12Z" fill="#605F5F"/>
</svg>
