<svg width="100" height="21" viewBox="0 0 100 21" fill="none" xmlns="http://www.w3.org/2000/svg">
<path d="M4.854 18.8333L6.20817 12.9792L1.6665 9.04167L7.6665 8.52083L9.99984 3L12.3332 8.52083L18.3332 9.04167L13.7915 12.9792L15.1457 18.8333L9.99984 15.7292L4.854 18.8333Z" fill="#FFC446"/>
<path d="M24.854 18.8333L26.2082 12.9792L21.6665 9.04167L27.6665 8.52083L29.9998 3L32.3332 8.52083L38.3332 9.04167L33.7915 12.9792L35.1457 18.8333L29.9998 15.7292L24.854 18.8333Z" fill="#FFC446"/>
<path d="M44.854 18.8333L46.2082 12.9792L41.6665 9.04167L47.6665 8.52083L49.9998 3L52.3332 8.52083L58.3332 9.04167L53.7915 12.9792L55.1457 18.8333L49.9998 15.7292L44.854 18.8333Z" fill="#FFC446"/>
<path d="M64.854 18.8333L66.2082 12.9792L61.6665 9.04167L67.6665 8.52083L69.9998 3L72.3332 8.52083L78.3332 9.04167L73.7915 12.9792L75.1457 18.8333L69.9998 15.7292L64.854 18.8333Z" fill="#FFC446"/>
<path d="M89.9998 14.2708L93.2707 16.25L92.3957 12.5417L95.2707 10.0417L91.479 9.70833L89.9998 6.20833V14.2708ZM84.854 18.8333L86.2082 12.9792L81.6665 9.04167L87.6665 8.52083L89.9998 3L92.3332 8.52083L98.3332 9.04167L93.7915 12.9792L95.1457 18.8333L89.9998 15.7292L84.854 18.8333Z" fill="#FFC446"/>
</svg>
