<svg width="260" height="61" viewBox="0 0 260 61" fill="none" xmlns="http://www.w3.org/2000/svg">
<path d="M90.0055 39.6842C92.8855 39.6842 94.2775 38.2122 94.2775 36.2602C94.2775 32.2762 88.1495 33.4122 88.1495 31.7162C88.1495 31.0762 88.6935 30.6442 89.6695 30.6442C90.7575 30.6442 91.9095 31.0122 92.7735 31.8122L94.0375 30.1482C92.9815 29.1722 91.5735 28.6602 89.8775 28.6602C87.3655 28.6602 85.8295 30.1322 85.8295 31.9082C85.8295 35.9242 91.9735 34.6282 91.9735 36.5162C91.9735 37.1242 91.3655 37.7002 90.1175 37.7002C88.6455 37.7002 87.4775 37.0442 86.7255 36.2602L85.4935 37.9882C86.4855 38.9962 87.9575 39.6842 90.0055 39.6842ZM100.943 39.6842C104.191 39.6842 105.759 37.8762 105.759 35.2202V28.8202H103.439V35.1562C103.439 36.6442 102.591 37.6682 100.943 37.6682C99.2953 37.6682 98.4313 36.6442 98.4313 35.1562V28.8202H96.1273V35.2362C96.1273 37.8602 97.6953 39.6842 100.943 39.6842ZM113.974 39.4922C116.006 39.4922 117.078 38.2122 117.078 36.6122C117.078 35.2682 116.166 34.1642 115.03 33.9882C116.038 33.7802 116.87 32.8842 116.87 31.5402C116.87 30.1162 115.83 28.8202 113.798 28.8202H108.182V39.4922H113.974ZM113.302 33.0922H110.454V30.7722H113.302C114.07 30.7722 114.55 31.2682 114.55 31.9402C114.55 32.6122 114.07 33.0922 113.302 33.0922ZM113.382 37.5242H110.454V35.0442H113.382C114.278 35.0442 114.758 35.6202 114.758 36.2922C114.758 37.0602 114.246 37.5242 113.382 37.5242ZM122.903 39.6842C125.783 39.6842 127.175 38.2122 127.175 36.2602C127.175 32.2762 121.047 33.4122 121.047 31.7162C121.047 31.0762 121.591 30.6442 122.567 30.6442C123.655 30.6442 124.807 31.0122 125.671 31.8122L126.935 30.1482C125.879 29.1722 124.471 28.6602 122.775 28.6602C120.263 28.6602 118.727 30.1322 118.727 31.9082C118.727 35.9242 124.871 34.6282 124.871 36.5162C124.871 37.1242 124.263 37.7002 123.015 37.7002C121.543 37.7002 120.375 37.0442 119.623 36.2602L118.391 37.9882C119.383 38.9962 120.855 39.6842 122.903 39.6842ZM134.193 39.6842C136.545 39.6842 137.889 38.3882 138.657 37.0602L136.705 36.1162C136.257 36.9962 135.297 37.6682 134.193 37.6682C132.257 37.6682 130.849 36.1802 130.849 34.1642C130.849 32.1482 132.257 30.6602 134.193 30.6602C135.297 30.6602 136.257 31.3482 136.705 32.2122L138.657 31.2522C137.905 29.9242 136.545 28.6442 134.193 28.6442C130.993 28.6442 128.513 30.8842 128.513 34.1642C128.513 37.4442 130.993 39.6842 134.193 39.6842ZM148.969 39.4922L146.569 35.4282C147.721 35.1562 148.905 34.1482 148.905 32.2602C148.905 30.2762 147.545 28.8202 145.321 28.8202H140.329V39.4922H142.601V35.7002H144.265L146.361 39.4922H148.969ZM144.985 33.7002H142.601V30.8202H144.985C145.897 30.8202 146.585 31.3642 146.585 32.2602C146.585 33.1562 145.897 33.7002 144.985 33.7002ZM153.202 39.4922V28.8202H150.93V39.4922H153.202ZM161.433 39.4922C163.465 39.4922 164.537 38.2122 164.537 36.6122C164.537 35.2682 163.625 34.1642 162.489 33.9882C163.497 33.7802 164.329 32.8842 164.329 31.5402C164.329 30.1162 163.289 28.8202 161.257 28.8202H155.641V39.4922H161.433ZM160.761 33.0922H157.913V30.7722H160.761C161.529 30.7722 162.009 31.2682 162.009 31.9402C162.009 32.6122 161.529 33.0922 160.761 33.0922ZM160.841 37.5242H157.913V35.0442H160.841C161.737 35.0442 162.217 35.6202 162.217 36.2922C162.217 37.0602 161.705 37.5242 160.841 37.5242ZM174.122 39.4922V37.4922H168.842V35.0762H174.01V33.0762H168.842V30.8202H174.122V28.8202H166.57V39.4922H174.122Z" fill="white"/>
</svg>
